<svg xmlns="http://www.w3.org/2000/svg" viewBox="0 0 379.46 493.84"><defs><style>.cls-1,.cls-2,.cls-3,.cls-4,.cls-5,.cls-6,.cls-7{stroke:#000;stroke-miterlimit:10;}.cls-2{stroke-width:0.75px;}.cls-3{stroke-width:0.5px;}.cls-4{stroke-width:4px;}.cls-5{stroke-width:0.25px;}.cls-6{stroke-width:6px;}.cls-7{stroke-width:5px;}</style></defs><g id="Calque_2" data-name="Calque 2"><g id="Calque_16" data-name="Calque 16"><path class="cls-1" d="M194.17,98.41,184.65,198c-47,8.34-82.58,48.92-82.58,97.73a97.87,97.87,0,0,0,14.08,50.72l.8.79-.44-.2C54.17,320.33,10,242.09,9.29,240.86h0C32.75,161,106.17,101.94,194.17,98.41Z"/></g><g id="Calque_5" data-name="Calque 5"><path class="cls-1" d="M373.05,202.34c-.57,26.13-24.94,46.79-54.41,46.15a60,60,0,0,1-12-1.46,52.73,52.73,0,0,1-28.05-17.2q-2.78-3.2-5.79-6.15c-14-13.68-31.45-22.26-51.51-26.19l-6.88-98.88c41.65,3.28,92.84,21.85,131.24,61.35,6.84,7,13.93,13.9,20.17,21.59a32,32,0,0,1,7.19,20.79Z"/></g><g id="Calque_11" data-name="Calque 11"><path class="cls-1" d="M160.41,73.35h.86L166,80.91l-1.44,1.24L158.72,77l-.81-2-1.64,2.9.19,1,1,.83-.58,1.55h-1.54l-1.15,2.18-.77-1.25-.77.21-.19-2H150.6v2.07l-.86-.51-.48,1.45-1.35-1.14v-.93s-1.63.2-1.73-.11-.67-2-.67-2l1-.1.38-1.45-1.34-2.59-1,1.76-6.06,5.28-1.35-1.45,4.71-7.45L143,73l-1.73-1,3.27-4.66.86.11.38-1,2.5-1.86.2-1.56.77-.31.09-2.28L151.47,58l2.4,2.49v2.07h.48l.58,1.76,2.5,2v1h1L161.66,72"/><line class="cls-2" x1="149.58" y1="57.89" x2="149.58" y2="61.38"/><line class="cls-2" x1="153.53" y1="58.02" x2="153.44" y2="60.71"/><line class="cls-3" x1="152.96" y1="58.02" x2="154.11" y2="58.02"/><line class="cls-3" x1="149.06" y1="57.89" x2="150.11" y2="57.89"/><line class="cls-4" x1="151.02" y1="80.66" x2="151.02" y2="81.18"/><line class="cls-4" x1="151.02" y1="80.66" x2="151.02" y2="81.18"/><line class="cls-4" x1="151.76" y1="81.21" x2="151.76" y2="80.49"/><line class="cls-3" x1="220.46" y1="41.08" x2="220.66" y2="42.72"/><path class="cls-1" d="M196.7,47.5c.26-29.47,2.65-37.44,2.65-37.44l1.55-1.33s1.74-4.29,1.87-4.58h4.39l.78,1.7,1.42.07V8.73L210.78,10s2.46,12.78,3,33.16l1.68,1.26,5.1-1.9L214,46.09s-.32,1.26-.38,1.41h1.68l.77.88H218l.9.82.07-3.55,4.07-1.33v3h.77v1.33l1.1.59V48.09h.52V50.3l1.16.82-2.84,3-.19,14.77s.12.74-1.1.89c0,0,1.55-1.85-1.1-6.5l-2.91-9.45L213,55.33l.06,7.9.07,14.55h-.65l-.39-.6-.06,2h-4.72l-.84-.89-.06-2.8s-2.53-.23-2.62,0,0,3,0,3l-.61.74h-5l-.06-1.85-.39.45h-.58l.13-22.6L194.63,55l-.58-.74-2.52-.15-4.2,12.55s-.26,2.59.52,2.66l-.07.52s-1.16.74-1.23-1.92,0-13.88,0-13.88l-2.26-1.78-.9-.22V50.45h.84l2.26-1.7-.07-1.55h.65V44.32l4.2,1.48v3.4l1-.89,1.81.07.78-.73Z"/><line class="cls-1" x1="208.72" x2="208.72" y2="6.88"/><line class="cls-1" x1="204.19" y1="2.38" x2="204.19" y2="4.15"/><line class="cls-2" x1="189.53" y1="42.5" x2="196.71" y2="46.46"/><line class="cls-3" x1="194.28" y1="45.12" x2="196.76" y2="42.91"/><line class="cls-5" x1="191.34" y1="42.5" x2="191.29" y2="43.47"/><line class="cls-3" x1="189.76" y1="41.36" x2="189.71" y2="42.51"/><line class="cls-3" x1="184.81" y1="47.94" x2="184.95" y2="49.91"/><line class="cls-6" x1="205.12" y1="75.26" x2="205.12" y2="76.38"/><line class="cls-7" x1="204.23" y1="72.93" x2="204.27" y2="75.95"/><line class="cls-7" x1="205.9" y1="73.39" x2="205.98" y2="76.06"/><path class="cls-1" d="M264.86,72.58h.87l4.71,7.56L269,81.39l-5.81-5.18-.82-2-1.63,2.9.19,1,1,.82-.58,1.56h-1.53l-1.16,2.17-.77-1.24-.77.21-.19-2h-1.82V81.8l-.87-.52-.48,1.45-1.35-1.14v-.93s-1.63.21-1.73-.1-.67-2-.67-2l1-.1.39-1.45L250,74.45l-1,1.76-6.06,5.28L241.6,80l4.71-7.46,1.15-.31-1.73-1L249,66.58l.87.1.38-1,2.5-1.87.19-1.55.77-.31.1-2.28,2.11-2.38,2.4,2.48v2.07h.49l.57,1.76,2.5,2v1h1l3.27,4.66"/><line class="cls-2" x1="254.04" y1="57.12" x2="254.04" y2="60.61"/><line class="cls-2" x1="257.99" y1="57.26" x2="257.89" y2="59.95"/><line class="cls-3" x1="257.41" y1="57.26" x2="258.57" y2="57.26"/><line class="cls-3" x1="253.51" y1="57.12" x2="254.57" y2="57.12"/><line class="cls-4" x1="255.48" y1="79.9" x2="255.48" y2="80.42"/><line class="cls-4" x1="255.48" y1="79.9" x2="255.48" y2="80.42"/><line class="cls-4" x1="256.22" y1="80.45" x2="256.22" y2="79.72"/></g><g id="Calque_14" data-name="Calque 14"><path class="cls-1" d="M379,375.91a48.22,48.22,0,0,1-1.21,10.76,25.39,25.39,0,0,1-2.82,7.16A196.16,196.16,0,0,1,363.75,411a200.37,200.37,0,0,1-162.41,82.36C90.91,493.34-1.24,408.73.53,295.08c.2-13.45,3.2-33.67,7.52-48.56,34.1,60,78.11,94.82,112.31,106.61,27.41,9.45,48,4.93,50.92-11.15,3.4-19,12.52-86.79,20.43-146.93,5.71-43.52,10.72-81.58,12.52-95.65.49.65.78,0,1.13,0,1,14,3.9,51.71,8.89,95.47,7.77,68.27,20.57,147.77,38.89,160.42,0,0,18.58,9.79,35.15-3.89h0a28.52,28.52,0,0,0,4.45-4.67A48,48,0,0,1,379,375.91Z"/><path class="cls-1" d="M203.53,104.8c.09-1,1.36-15.73,1.36-15.73l.86,15.82Z"/></g></g></svg>