<svg xmlns="http://www.w3.org/2000/svg" xmlns:xlink="http://www.w3.org/1999/xlink" viewBox="0 0 379.46 492.82"><defs><style>.cls-1{fill:url(#Dégradé_sans_nom_986);}.cls-2{fill:url(#Dégradé_sans_nom_1077);}.cls-3{stroke:#000;stroke-miterlimit:10;}</style><linearGradient id="Dégradé_sans_nom_986" x1="221.07" y1="227.76" x2="15.59" y2="288.43" gradientUnits="userSpaceOnUse"><stop offset="0.03" stop-color="#d60000"/><stop offset="0.33" stop-color="#c10000"/><stop offset="0.76" stop-color="#9b0000"/></linearGradient><linearGradient id="Dégradé_sans_nom_1077" x1="417.42" y1="168.15" x2="162.02" y2="176.39" gradientTransform="matrix(1.03, 0.02, -0.02, 1, -2.17, -6.45)" gradientUnits="userSpaceOnUse"><stop offset="0" stop-color="#ff0d00"/><stop offset="0.17" stop-color="#fb0c00"/><stop offset="0.34" stop-color="#f00900"/><stop offset="0.5" stop-color="#dd0300"/><stop offset="0.57" stop-color="#d20000"/><stop offset="0.95" stop-color="#d50000"/></linearGradient></defs><g id="Calque_2" data-name="Calque 2"><g id="Calque_4" data-name="Calque 4"><path class="cls-1" d="M194.17,97.38,184.1,196.61C137.36,205,103,244.86,103,295a102.49,102.49,0,0,0,25.46,67.9l-78.84,60C19,388.38-1.48,343.29.53,294.05,5.92,161.51,111.62,100.56,194.17,97.38Z"/></g><g id="Calque_5" data-name="Calque 5"><path class="cls-2" d="M373.05,201.31c-.57,26.14-24.94,46.8-54.41,46.15a60,60,0,0,1-12-1.46,52.72,52.72,0,0,1-28.05-17.19q-2.78-3.21-5.79-6.15c-14-13.68-31.45-22.27-51.51-26.2l-6.88-98.87c41.65,3.27,92.84,21.85,131.24,61.34,6.84,7,13.93,13.91,20.17,21.59a32,32,0,0,1,7.19,20.79Z"/></g><g id="Calque_10" data-name="Calque 10"><path d="M205.44,74c0,.22,0,.44,0,.66s0,.29-.33.29-.27,0-.28-.28a3.1,3.1,0,0,0,0-.59.84.84,0,0,0,0,.33c0,.07,0,.16-.1.15s-.07-.08-.07-.14v-.54c0-.07,0-.16-.09-.16s0,.1-.05.16,0,.3-.11.42a.29.29,0,0,1-.35.07c-.12,0-.1-.14,0-.23a0,0,0,0,0,0,0c-.21-.11-.1-.32-.13-.48s0-.14-.1-.14-.12.07-.12.14a13,13,0,0,0,0,1.4,4.42,4.42,0,0,1,0,.63,2.73,2.73,0,0,1,0,.57.41.41,0,0,1-.07.26c-.19.26-.32.56-.53.81a.34.34,0,0,1-.31.15c-1.22-.1-2.45-.05-3.67-.1l-.83,0c-.21,0-.26-.15-.26-.31,0-.56,0-1.12,0-1.69-.09,0-.19.06-.19.21a.38.38,0,0,1-.44.38c-.27,0-.38-.11-.38-.37v-8q0-5.62,0-11.27a.92.92,0,0,1,.31-.74.39.39,0,0,0,.14-.33q0-.52,0-1c0-.16-.06-.22-.21-.21a3.15,3.15,0,0,1-1.35-.25c-.09,0-.19,0-.25.08s-.16.11-.26.09a10.22,10.22,0,0,1-1.07-.34.22.22,0,0,1-.1-.09c-.08-.29-.35-.33-.58-.39a3.31,3.31,0,0,1-.61-.19c-.06,0-.12,0-.16,0a.45.45,0,0,1-.55.1c-.23-.06-.45-.15-.69-.21a.38.38,0,0,1-.28-.3c0-.05,0-.1-.1-.09s-.05.06-.06.11c-.08.41-.22.81-.34,1.22l-.24.89c-.06.25-.12.5-.19.75a.28.28,0,0,1-.08.11.2.2,0,0,0,0,.29c.12.13.06.19,0,.28s-.31.17-.28.4c0,0-.11.07-.19.12.16.1.11.17,0,.32a3.46,3.46,0,0,0-.25.66.26.26,0,0,1-.11.16c-.06,0-.1.07,0,.14s0,.14-.05.16-.22.21-.22.38,0,.2,0,.3,0,.2-.12.11,0,.05-.05.08c-.12.23-.07.53-.25.73s-.12.46-.29.63,0,.08.06.1c.28.14.34.25.28.56s-.21.17-.37.2c.2.16,0,.36.07.54s-.16.13-.28.1a.38.38,0,0,0-.5.47.39.39,0,0,1-.08.28,2.24,2.24,0,0,0-.37.8.06.06,0,0,0,0,0c-.25.08-.09.26-.1.4s0,.36-.19.48-.11.23-.06.37,0,.28-.15.31a.15.15,0,0,0-.13.17c0,.59,0,1.18,0,1.77a2.09,2.09,0,0,0,.28.68c0,.13.12.26.18.4s0,.24-.16.25c-.41,0-.41,0-.55-.38a7.68,7.68,0,0,0-.32-.79.54.54,0,0,1-.05-.28c0-.51,0-1,0-1.54-.15-2.08,0-4.16-.07-6.24a.86.86,0,0,1,0-.16c0-.12.06-.24-.12-.29s0-.12,0-.18c0-.92,0-1.84,0-2.76s.14-1.56.15-2.35a.34.34,0,0,1,0-.1c.09-.28.09-.28-.19-.37s-.7-.28-1.06-.37c-.15,0-.21-.17-.21-.33s0-.21-.18-.19a.72.72,0,0,1-.56-.35c-.11-.15-.27-.28-.15-.5,0-.06-.06-.07-.11-.09a1.48,1.48,0,0,0-.42,0,.24.24,0,0,1-.27-.27c0-.35,0-.7,0-1.05,0-.15.06-.22.21-.21h.65a.27.27,0,0,1-.07-.38c.08-.13.16-.29.33-.34s.09,0,.08-.08c0-.31.12-.6.07-.9a1.41,1.41,0,0,1,0-.54c0-.07,0-.15.12-.17s.12.07.16.13a.32.32,0,0,1,0,.25,3.09,3.09,0,0,0-.06,1c0,.06,0,.13.09.13s0-.07.07-.12a.39.39,0,0,1,.25-.28c.36-.16.76-.23,1.13-.39.15-.07.19-.13.06-.27-.28-.31-.15-.69-.14-1a.16.16,0,0,1,.18-.13c.14,0,.26-.07.39,0s.09,0,.09-.09V43.52c0-.23,0-.2.25-.24a2,2,0,0,1,1,.16,3.06,3.06,0,0,1,.88.31,2.43,2.43,0,0,0,.64.33c.4.12.8.26,1.2.37s.35.16.35.43v2.91c0,.27,0,.26.24.2a.43.43,0,0,0,.36-.3c.05-.14.2-.19.33-.23a6.49,6.49,0,0,0,.75-.23.24.24,0,0,1,.3.08.23.23,0,0,0,.3.09c.27-.11.57-.15.84-.26a.51.51,0,0,0,.27-.21.65.65,0,0,1,.48-.32,6.55,6.55,0,0,0,.67-.2c.13,0,.23,0,.31.07a.24.24,0,0,0,.3.08,2.18,2.18,0,0,1,.44-.11c.16,0,.22-.11.15-.27s-.24-.62-.35-.94a.28.28,0,0,0-.15-.17c-.54-.26-1.09-.51-1.63-.78s-.88-.4-1.31-.6L191.46,43a8.1,8.1,0,0,1-1-.47,12,12,0,0,0-1.15-.54l-.37-.15c-.08,0-.14-.1-.09-.17a2.75,2.75,0,0,0,.28-.82s0-.13.09-.1a.12.12,0,0,1,.09.14c-.1.19.09.41,0,.6s0,.11.06.15a4.79,4.79,0,0,0,.92.33c.14,0,.18-.07.22-.17s0-.08.06-.07.05.06,0,.1,0,.07,0,.1,0,.15.08.17,0-.08.07-.13a1,1,0,0,0,.08-.49c0-.07,0-.15.11-.14s.06.1.06.16-.1.34-.08.53,0,.2.16.22a4.3,4.3,0,0,1,1.28.56,10.67,10.67,0,0,0,1.27.53c.13.06.27.08.39.15a.24.24,0,0,0,.31,0,3.79,3.79,0,0,0,.55-.44c.21-.21.5-.32.71-.53a3.16,3.16,0,0,1,.44-.38.12.12,0,0,0,.05-.15,1.75,1.75,0,0,1,0-.72,2.9,2.9,0,0,0,0-.66,2,2,0,0,1,.12-.72.43.43,0,0,0,0-.35.58.58,0,0,1,0-.43,3.62,3.62,0,0,0,.06-.46c.07-.47,0-1,.1-1.41a20.85,20.85,0,0,0,.18-2.49c0-.16,0-.32,0-.47.05-.56.06-1.12.12-1.67a9.37,9.37,0,0,0,.19-1.48.5.5,0,0,0-.05-.27.25.25,0,0,1,0-.22,2,2,0,0,0,.07-.59c.09-.5.06-1,.13-1.51,0-.29.09-.59.11-.89,0-.52.07-1.05.14-1.57,0-.34,0-.69,0-1,0-.79.08-1.59.14-2.37a8.43,8.43,0,0,1,.08-1.24,8.83,8.83,0,0,1,.13-1.25.31.31,0,0,0,0-.1,6.58,6.58,0,0,1,.09-1.25c.06-.67.11-1.34.17-2a4.94,4.94,0,0,1,.2-1.19c.08-.26.07-.55.13-.83.11-.45.21-.91.3-1.37s.19-.87.29-1.31c.15-.64.24-1.3.4-1.94a1.26,1.26,0,0,1,.42-.63c.32-.3.64-.6,1-.88.12-.11.13-.29.18-.44a11.79,11.79,0,0,1,.64-1.4,2.58,2.58,0,0,0,.21-.48,13.21,13.21,0,0,1,.72-1.58A1.09,1.09,0,0,1,203.44,4,2.24,2.24,0,0,0,204,4c.13,0,.13-.08.13-.16,0-.47,0-.93,0-1.39,0-.07-.05-.21.08-.2s.08.13.09.21V3.78a.28.28,0,0,0,0,.21.36.36,0,0,1,.33-.08,11.82,11.82,0,0,1,1.46,0,.09.09,0,0,0,.1,0s.08-.07.1,0,.24.09.35.12.27.07.41.09a.55.55,0,0,1,.44.34c.25.54.49,1.09.74,1.62.07.16,0,.32.12.47,0-.21,0-.42,0-.64,0-.07,0-.21.06-.21s.06.13.06.21c0,.29,0,.57,0,.86a1.06,1.06,0,0,0,.11.45.38.38,0,0,0,0-.25c0-1-.06-1.9,0-2.85.09-1.2,0-2.39.07-3.58,0-.15.08-.27.07-.42A.07.07,0,0,1,209,0a.09.09,0,0,1,.09.06,1.09,1.09,0,0,1,0,.18,6.48,6.48,0,0,0,0,1.08c.1.6,0,1.21.08,1.8,0,.09,0,.19,0,.28.13,1.36.05,2.73.07,4.09,0,.06,0,.15.06.15s.06-.1.06-.16V5.81c0-.07,0-.19.09-.19s.08.12.08.19c0,.55,0,1.09,0,1.63,0,.16,0,.3.22.29a.13.13,0,0,1,.12.09v0c-.1.06-.29-.07-.31.1s-.11.48.13.65c.42.3.73.72,1.14,1a1,1,0,0,1,.31.8c0,.32.15.63.21.94s.17.62.21.94a6.6,6.6,0,0,0,.17.77,12.4,12.4,0,0,1,.27,1.35c0,.32.15.63.21.95s.13.66.18,1c.09.51,0,1.05.15,1.56a.69.69,0,0,1,0,.2,6.81,6.81,0,0,0,.15,1.35,1.11,1.11,0,0,1-.08.78.81.81,0,0,0,0,.63,1.11,1.11,0,0,0,.2.55.33.33,0,0,1,0,.22,12.75,12.75,0,0,0,.14,1.74c0,.11,0,.24,0,.36,0,.73.09,1.46.11,2.18a5.09,5.09,0,0,0,.12,1.29.13.13,0,0,1,0,.06,6.52,6.52,0,0,0,.1,1.25c.09.8.13,1.59.18,2.39a8.93,8.93,0,0,0,.07,1c.08.64.08,1.28.11,1.92a5.14,5.14,0,0,0,0,.56c.1.46,0,.94.12,1.39a.36.36,0,0,1,0,.1,6.13,6.13,0,0,0,.1,1.29c.07.58,0,1.17.16,1.73a9.73,9.73,0,0,1,.07,1.32,11.87,11.87,0,0,1,.08,1.33c0,.12.09.24,0,.37s0,.1.07.13l.74.61c.19.17.39.32.58.5a1.62,1.62,0,0,0,.45.28c.16.07.3-.07.45-.11.38-.11.73-.32,1.12-.43a3,3,0,0,0,.66-.36,4.84,4.84,0,0,1,.89-.35c.21-.07.25-.12.18-.34a2,2,0,0,1,0-.6.3.3,0,0,1,.17.29.83.83,0,0,0,.07.41s0,.09.07.08,0-.06,0-.1a.48.48,0,0,0,0-.17c0-.05,0-.09,0-.12s.08,0,.09,0c.05.28.24.23.41.17a4.71,4.71,0,0,0,.69-.27c.05,0,.14-.05.11-.12-.11-.24,0-.5-.05-.75s-.09-.59-.14-.88c0-.06,0-.13.05-.15s.08.05.09.11a9.73,9.73,0,0,1,.18,1.08,1.8,1.8,0,0,0,.39.87,2.23,2.23,0,0,0-.43.1l-1.74.83L216,44.29,214.4,45a.57.57,0,0,0-.33.46,5.24,5.24,0,0,1-.27.73c-.05.12,0,.16.08.19l.62.16a.14.14,0,0,0,.11,0c.22-.32.49-.09.72,0a2.87,2.87,0,0,1,.57.17c.11,0,.22.09.25.21s.33.24.51.32a6.55,6.55,0,0,0,.63.19.22.22,0,0,0,.27-.09.22.22,0,0,1,.28-.08c.27.09.55.16.83.24a.37.37,0,0,1,.28.23c.07.3.35.25.54.34s.09-.07.09-.14v-.8c0-.76,0-1.53,0-2.29,0-.21.07-.29.28-.35.57-.17,1.14-.32,1.69-.54.11,0,.13-.17.24-.2.28-.09.55-.2.83-.28a2.4,2.4,0,0,0,.38-.12,1.44,1.44,0,0,1,.74,0c.11,0,.14.09.14.19a18,18,0,0,1,0,2.2v0c0,.37.05.46.42.42s.28,0,.26.25a2.67,2.67,0,0,0,0,.4.7.7,0,0,1-.14.53c-.1.12,0,.18.07.22.39.15.79.26,1.17.42.13.05.2.11.18.25a.33.33,0,0,0,.12.29,2,2,0,0,0,.06-1.16c0-.16-.08-.32.1-.43s.14,0,.16,0a.84.84,0,0,1,.08.41,2.86,2.86,0,0,0,0,1,3.61,3.61,0,0,1,0,.66c0,.17.06.24.22.25l.32,0c.15,0,.24,0,.22.21a.49.49,0,0,0,.28.5c.14.07.09.2,0,.26a.43.43,0,0,0-.27.42.12.12,0,0,1-.13.13,1.74,1.74,0,0,0-.54.19c-.13,0-.17.23-.28.33s-.06.11-.12.13-.18.2-.18.35c0,.39,0,.42-.41.54s-.66.22-1,.34c-.12,0-.21.08-.14.27a2.31,2.31,0,0,1,.1.75,12.75,12.75,0,0,0,.1,1.75c.07.88,0,1.75,0,2.63,0,.14,0,.32-.18.4s-.06.52,0,.62.09.06,0,.09-.11.27-.11.41c0,2.19,0,4.38,0,6.57a2.68,2.68,0,0,1-.29,1.26,2.08,2.08,0,0,0-.15.39.32.32,0,0,1-.37.28c-.39,0-.39,0-.24-.36.09-.2.17-.41.27-.6a1.7,1.7,0,0,0,.16-.91V65c0-.08,0-.17-.11-.2s-.27-.15-.19-.35a.24.24,0,0,0,0-.31.67.67,0,0,1-.2-.32.56.56,0,0,1,.15-.54c-.38.11-.27-.23-.34-.37s-.12-.28-.2-.41a.66.66,0,0,1-.16-.51c0-.23-.2-.41-.44-.38a.59.59,0,0,1-.23,0,.22.22,0,0,1-.1,0c.08-.17-.18-.39.07-.54-.06-.06-.13,0-.18,0a.24.24,0,0,1-.21-.23.43.43,0,0,1,.27-.51.13.13,0,0,0,0-.06c-.12-.18-.08-.41-.21-.59a1.51,1.51,0,0,1-.29-.82,2.61,2.61,0,0,1,0-.28l-.06,0c0,.07,0,.22-.09.21s-.07-.15-.09-.24.11-.3,0-.46,0-.09-.1-.1-.17-.09-.11-.21,0-.06,0-.09a2.79,2.79,0,0,1-.37-.78c0-.13-.18-.23,0-.37l-.05-.06s-.09-.05-.08-.07c0-.24-.18-.29-.29-.4s-.16-.16,0-.27a.13.13,0,0,0,0-.21,2,2,0,0,1-.27-.7c-.19-.71-.34-1.42-.58-2.12a2.13,2.13,0,0,1,0-.25s0-.09,0-.11a.1.1,0,0,0-.1.06c-.28.53-.86.43-1.31.62a.07.07,0,0,1-.1,0c-.11-.21-.27-.18-.44-.11s-.56.14-.83.27a.28.28,0,0,0-.16.14.54.54,0,0,1-.47.32c-.25.05-.46.2-.72.23s-.24,0-.32-.11-.13-.09-.23-.06a3.33,3.33,0,0,1-1.43.25c-.12,0-.17,0-.16.16a6.54,6.54,0,0,1,0,1,.6.6,0,0,0,.23.53.66.66,0,0,1,.2.43,12.35,12.35,0,0,1,0,1.92c0,1.39,0,2.77,0,4.15V75.41a.43.43,0,0,1-.43.46.41.41,0,0,1-.41-.4.57.57,0,0,0,0-.14s-.06-.09-.13-.08-.06.08-.06.13V77c0,.13-.06.19-.2.19l-4.56,0a.52.52,0,0,1-.54-.31c-.1-.22-.22-.42-.34-.63a.44.44,0,0,1,0-.25c0-.77,0-1.54,0-2.31,0-.08.06-.22-.06-.22s-.09.13-.09.21a.34.34,0,0,1-.11.33.08.08,0,0,0,0,.11c.06.11,0,.17-.1.22a.21.21,0,0,1-.28,0,.59.59,0,0,1-.14-.46s0-.16-.06-.16-.06.1-.06.16,0,.36,0,.54,0,.15-.08.15-.08-.09-.09-.15V74ZM196,42.6c-.44.4-1,.68-1.38,1.09.35.22.76.25,1.1.45.08,0,.12,0,.15-.09C196,43.58,195.83,43.09,196,42.6Zm13-38.85,0,0c0,1.07,0,2.15,0,3.23,0,0,0,.14.09.13s.06-.1.06-.15V4A.26.26,0,0,0,208.93,3.75Zm-3.52,68.91h-1.13s-.08,0-.09.06a.1.1,0,0,0,0,.11c.06,0,.13.12.19.12.35,0,.7,0,1.07,0-.08-.15-.26,0-.31-.19S205.33,72.77,205.41,72.66Z"/></g><g id="Calque_11" data-name="Calque 11"><path d="M153,81.29a3.62,3.62,0,0,1,0,.43c0,.14-.07.21-.17.22a.24.24,0,0,1-.23-.21.62.62,0,0,1,0-.38.62.62,0,0,0,0-.59.25.25,0,0,1,0-.15c0-.23-.08-.46-.06-.69,0-.07,0-.14-.1-.15s-.2,0-.25.09a.66.66,0,0,0,0,.15.19.19,0,0,1-.19.15.23.23,0,0,1-.23-.17.22.22,0,0,1,0-.08c0-.11-.06-.15-.17-.14s-.17,0-.19.15-.1.23-.26.21a.18.18,0,0,1-.16-.14c-.06-.21-.06-.21-.26-.23,0,0-.09,0-.13,0a.48.48,0,0,0,0,.24v1.58a.57.57,0,0,1,0,.26c0,.08-.09.14-.19.13a.19.19,0,0,1-.18-.16c0-.1,0-.21,0-.32a1.12,1.12,0,0,1-.41.15c-.08,0-.12.08-.14.16s-.11.32-.17.48a3.51,3.51,0,0,1-.27.55c0,.07-.08.09-.14,0a.64.64,0,0,1-.15-.13c-.14-.23-.38-.38-.51-.61a.53.53,0,0,0-.13-.16.6.6,0,0,1-.28-.62,7,7,0,0,0-.06-.78c-.18,0-.26.11-.35.23s-.14.19-.33.1a1.25,1.25,0,0,0-.32-.05,4.81,4.81,0,0,0-.73-.17.17.17,0,0,1-.18-.16,1.51,1.51,0,0,1-.1-.42,1,1,0,0,0-.12-.33c-.09-.22-.07-.46-.17-.67a.24.24,0,0,1,.15-.34c.22-.08.39-.25.61-.32a.21.21,0,0,0,.17-.28,1.06,1.06,0,0,1,0-.31c0-.17,0-.34.19-.43s.09-.14,0-.25-.22-.37-.32-.57a11,11,0,0,0-.65-1.22.87.87,0,0,1-.15-.47.37.37,0,0,0-.18-.34,5.43,5.43,0,0,0-.51-.42c0,.18-.05.35-.08.53a.35.35,0,0,1-.19.31c-.14.07-.23.23-.37.31s-.06.1-.06.16a2.25,2.25,0,0,0,0,.26.44.44,0,0,1-.25.47l-.13.12a10.37,10.37,0,0,1-1,.94,4.28,4.28,0,0,0-.44.4c-.35.36-.75.68-1.13,1l-1.35,1.22L138.62,81l-.41.36a.65.65,0,0,1-.71,0,.72.72,0,0,1-.2-.19,7.46,7.46,0,0,0-.71-.78.12.12,0,0,1,0-.2c.1-.07.12-.18.18-.27.22-.33.44-.65.65-1,.06-.08.1-.18.16-.27.33-.46.61-1,.93-1.43.19-.29.37-.58.55-.87s.51-.79.76-1.18l.82-1.27a9.06,9.06,0,0,1,.6-.92,1.23,1.23,0,0,0,.17-.32.37.37,0,0,1,.4-.23c.2,0,.3-.08.38-.24s.27-.28.32-.48-.09,0-.13-.06a1,1,0,0,1-.5-.2,1.33,1.33,0,0,0-.5-.26.38.38,0,0,1-.29-.38,1.48,1.48,0,0,0,0-.21.48.48,0,0,1,.16-.41,3.19,3.19,0,0,0,.39-.5c.34-.48.72-.92,1.07-1.38a11.93,11.93,0,0,1,.84-1c.19-.22.33-.48.53-.7l.27-.33a.22.22,0,0,1,.21-.08c.23,0,.47,0,.7,0s.18,0,.18-.17,0-.33,0-.49a.52.52,0,0,1,.22-.39c.24-.17.43-.39.67-.57s.4-.37.62-.53.25-.26.39-.38.27-.22.39-.34a.3.3,0,0,1,.39-.06s.08.08.14.06,0-.12,0-.19a1.21,1.21,0,0,1,.08-.86,3.77,3.77,0,0,0,.28-.57,1,1,0,0,1,.22-.36s0,0,.07,0a.91.91,0,0,0,.36.34,2.1,2.1,0,0,0,0-.36,3.52,3.52,0,0,1,0-.56c0-.09,0-.17-.1-.19s-.16-.13-.17-.25,0-.13,0-.2,0-.12.06-.13.15-.18.15-.31v-.33c0-.09,0-.18.09-.23s.06-.14.06-.22V57.06c0-.12,0-.21-.17-.23a.17.17,0,0,1-.17-.19c0-.09.09-.17.22-.17H150a.15.15,0,0,1,.17.15c0,.1,0,.18-.11.2s-.14.08-.14.18v1a.09.09,0,0,0,0,.09.07.07,0,0,0,.08,0c.1-.24.33-.39.46-.61,0,0,0-.07.07-.07.24,0,.26-.2.32-.34.2-.48.16-.46.7-.46.32,0,.33,0,.44.32,0,.09.07.18.11.26s.1.21.26.21.22.14.31.24a3.13,3.13,0,0,1,.2.3s0,.09.11.1.05-.09.05-.13c0-.3,0-.59,0-.88a.13.13,0,0,0-.1-.16.17.17,0,0,1-.16-.2c0-.12.11-.16.22-.17a8.47,8.47,0,0,1,.88.07.13.13,0,0,1,.12.11c0,.08,0,.18-.06.21s-.14.18-.14.3c0,.57,0,1.14,0,1.7,0,.34.05.67.05,1a.12.12,0,0,0,.08.12c.16,0,.12.16.12.27s0,.23-.13.26-.07.09-.07.15v.87a2.13,2.13,0,0,1,.21-.26c.09-.09.19-.08.23,0a7.26,7.26,0,0,1,.5,1.42c0,.12.11.21.1.34s0,.05.05.05.3.12.4.23c.3.33.67.59,1,.92s.57.51.86.77c.12.11.22.24.34.35a.3.3,0,0,1,0,.36.83.83,0,0,0-.07.4c0,.11,0,.16.15.16s.47,0,.7,0a.52.52,0,0,1,.48.25,7,7,0,0,0,.69.86l.07.1a4.58,4.58,0,0,0,.67.84l.06.09c.21.34.49.63.73,1s.38.45.54.7c0,0,.06.13.12.16.32.23.16.55.17.83a.15.15,0,0,1-.1.12c-.24.14-.49.28-.72.44s-.23,0-.35.06-.2,0-.24,0a.32.32,0,0,0,0,.34,4,4,0,0,0,.43.4c.07.07.18,0,.28,0a.37.37,0,0,1,.37.2c.2.27.33.58.55.83a2.4,2.4,0,0,1,.16.27,10.11,10.11,0,0,0,.65,1,1.73,1.73,0,0,1,.15.27c.08.18.24.3.34.48a8.57,8.57,0,0,0,.66,1c0,.06.07.14.11.2.22.31.39.64.63.94a.67.67,0,0,1,.12.2.49.49,0,0,0,.14.24,2.9,2.9,0,0,1,.27.41c.2.29.38.6.59.9s.27.45.43.67.09.23-.06.35a.91.91,0,0,0-.2.24c-.12.2-.33.32-.43.54s-.11.07-.17.11a1.43,1.43,0,0,1-.45.12.27.27,0,0,1-.23-.09c-.33-.31-.67-.59-1-.91a7.3,7.3,0,0,0-.66-.57c-.13-.11-.24-.24-.37-.35-.59-.53-1.15-1.08-1.75-1.6-.45-.4-.87-.83-1.34-1.2-.26-.21-.48-.46-.73-.68a.26.26,0,0,1-.06-.22.75.75,0,0,0-.35-.77.52.52,0,0,1-.23-.49,3.23,3.23,0,0,0,0-.44s0-.09,0-.11-.08,0-.11,0c-.18.2-.42.33-.6.52s-.12.12-.11.22a1.59,1.59,0,0,1-.29.87,3.39,3.39,0,0,0-.2.38,9,9,0,0,0-.47,1c0,.07-.09.12-.14.19s-.07.16.06.24a.22.22,0,0,1,.1.22c0,.14,0,.28,0,.42a.31.31,0,0,0,.21.34c.23.13.45.28.67.42s.1.12.07.23c-.09.42-.17.84-.26,1.26a.29.29,0,0,1-.21.23c-.13,0-.26.06-.4.1a4.32,4.32,0,0,1-.78.22c-.17,0-.2,0-.22-.18a.06.06,0,0,0-.09-.06c-.06,0-.12.06-.19.06s-.14.08-.14.18a3.4,3.4,0,0,1-.08.63,1,1,0,0,1-.29.54.45.45,0,0,0-.11.13c-.12.25-.35.41-.46.65a.16.16,0,0,1-.17.1c-.08,0-.11-.07-.14-.14a2.36,2.36,0,0,0-.12-.28c-.1-.3-.34-.52-.41-.83,0-.08-.08-.09-.16,0s-.19.07-.23-.12A.38.38,0,0,0,153,81.29Z"/><path d="M257.36,80.36c0,.15.05.27,0,.4s-.07.22-.17.23a.25.25,0,0,1-.24-.2.81.81,0,0,1,0-.38.75.75,0,0,0,0-.62,2.84,2.84,0,0,1-.08-.66V79c0-.07,0-.16-.1-.18a.21.21,0,0,0-.26.13l0,.1c0,.1-.07.16-.17.16a.24.24,0,0,1-.24-.17.09.09,0,0,1,0-.07c0-.11-.06-.16-.17-.15s-.17,0-.2.15-.09.22-.25.21-.16-.05-.16-.14-.13-.23-.29-.23H255a.34.34,0,0,0,0,.24v1.57a1.93,1.93,0,0,1,0,.24.21.21,0,0,1-.21.19c-.1,0-.17-.09-.19-.22s0-.17,0-.26a1.57,1.57,0,0,1-.43.15c-.06,0-.09.06-.11.12s-.11.29-.15.44a4.66,4.66,0,0,1-.28.6c-.05.11-.12.11-.2,0a2.08,2.08,0,0,1-.21-.21,7.43,7.43,0,0,0-.64-.73.46.46,0,0,1-.18-.41,5.89,5.89,0,0,0-.06-.93.46.46,0,0,0-.35.24c-.11.18-.15.2-.33.11a1.36,1.36,0,0,0-.35-.07,4,4,0,0,0-.7-.15c-.08,0-.16,0-.17-.13s-.13-.27-.11-.43-.08-.18-.11-.28-.09-.5-.18-.75a.24.24,0,0,1,.17-.35c.23-.08.4-.26.63-.33a.18.18,0,0,0,.13-.22,2.3,2.3,0,0,1,0-.37.37.37,0,0,1,.19-.41.13.13,0,0,0,.06-.21c-.22-.32-.33-.69-.55-1-.07-.12-.11-.25-.17-.37a3.07,3.07,0,0,0-.2-.36,1,1,0,0,1-.21-.58.37.37,0,0,0-.18-.32c-.18-.12-.3-.32-.52-.41,0,.18-.05.36-.08.54A.33.33,0,0,1,249,74c-.14.07-.23.23-.37.31s-.06.1-.06.16a2.81,2.81,0,0,0,0,.29.46.46,0,0,1-.24.44.55.55,0,0,0-.14.12,10.37,10.37,0,0,1-1,.94c-.15.13-.3.26-.44.4-.36.36-.75.68-1.13,1l-1,.89c-.32.29-.65.57-1,.86s-.63.55-.93.85a.65.65,0,0,1-.76.06.77.77,0,0,1-.23-.21,6.23,6.23,0,0,0-.69-.76c-.07-.07-.08-.15,0-.2s.13-.18.19-.27c.21-.33.43-.65.65-1,.06-.09.09-.19.15-.27.33-.47.62-1,.93-1.44.19-.28.38-.57.56-.86s.52-.81.77-1.21.54-.85.82-1.27a8.57,8.57,0,0,1,.59-.89,2.21,2.21,0,0,0,.18-.34.36.36,0,0,1,.38-.22.33.33,0,0,0,.38-.23c.09-.18.28-.29.33-.49s-.1,0-.16-.06a1.14,1.14,0,0,1-.47-.19,1.33,1.33,0,0,0-.5-.26.38.38,0,0,1-.29-.38c0-.12,0-.24,0-.36a.2.2,0,0,1,.06-.17,3.09,3.09,0,0,0,.48-.6c.35-.47.73-.91,1.08-1.38s.53-.71.83-1,.3-.43.48-.63l.33-.4a.22.22,0,0,1,.2-.08c.23,0,.45,0,.68,0s.2,0,.21-.19,0-.31,0-.46a.48.48,0,0,1,.22-.39c.21-.15.38-.35.58-.5s.48-.43.73-.63a3,3,0,0,0,.44-.43c.12-.12.28-.2.39-.33a.16.16,0,0,1,.19,0,1.92,1.92,0,0,1,.25.12c.08-.07,0-.14,0-.2a1.27,1.27,0,0,1,.07-.86,3,3,0,0,0,.28-.57,1.28,1.28,0,0,1,.23-.37l.06,0c.1.11.18.27.36.33a1.93,1.93,0,0,0,0-.34,3.64,3.64,0,0,1,0-.57c0-.09,0-.18-.12-.2s-.13-.2-.17-.31-.06-.26.13-.3.06-.08.06-.13v-.42c0-.11,0-.22.1-.3s.05-.12.05-.19V56.1c0-.12,0-.2-.17-.22a.18.18,0,0,1-.18-.19c0-.09.09-.17.22-.17h.83a.16.16,0,0,1,.18.15c0,.11,0,.19-.13.21s-.13.08-.13.17c0,.32,0,.65,0,1,0,0,0,0,0,.06a.06.06,0,0,0,.09,0c.1-.24.33-.39.45-.62a.13.13,0,0,1,.1-.08c.18,0,.2-.12.25-.23s.11-.25.17-.38a.26.26,0,0,1,.26-.17H256c.29,0,.3,0,.41.29a2.85,2.85,0,0,0,.12.31c.06.11.11.18.25.19s.23.15.33.26.16.28.28.38.07-.1.07-.15c0-.29,0-.57,0-.86,0-.09,0-.14-.13-.16a.16.16,0,0,1-.13-.19.19.19,0,0,1,.19-.17h.39a3.41,3.41,0,0,0,.46.05.16.16,0,0,1,.18.12c0,.09,0,.19-.08.22s-.12.13-.12.23c0,.61,0,1.21,0,1.81,0,.32,0,.64,0,1,0,.06,0,.11.07.13s.13.16.13.26,0,.24-.12.27-.08.08-.08.15v.87a2.13,2.13,0,0,1,.21-.26c.08-.09.19-.08.22,0,.08.31.27.57.35.88s.17.58.25.88c0,0,0,0,.05,0,.24,0,.37.19.51.34l.38.35L261.66,64a2.81,2.81,0,0,1,.34.35.37.37,0,0,1,0,.39.31.31,0,0,0-.06.16c0,.35,0,.37.33.37a4.34,4.34,0,0,0,.51,0,.49.49,0,0,1,.48.25,8.12,8.12,0,0,0,.69.86l.06.08a6.59,6.59,0,0,0,.7.88c.06.07.1.17.16.24.2.25.39.52.6.76s.35.44.52.67a1.42,1.42,0,0,0,.25.3.24.24,0,0,1,.09.2V70a.2.2,0,0,1-.11.19c-.24.14-.49.28-.72.44a.62.62,0,0,1-.38.06c-.22,0-.3.12-.22.33a.35.35,0,0,0,.15.17.3.3,0,0,1,.11.07.52.52,0,0,0,.59.25.25.25,0,0,1,.25.15c.3.47.6.94.89,1.41a4,4,0,0,0,.48.68,1.61,1.61,0,0,1,.15.26c.09.19.25.32.35.51a10,10,0,0,0,.66,1c.06.07.09.17.14.24.22.3.41.62.61.92s.33.5.48.76.42.63.62.94a1.3,1.3,0,0,1,.1.15,2.22,2.22,0,0,0,.29.46c.17.2.15.29,0,.47s-.11.12-.15.18c-.11.22-.34.34-.44.57,0,.05-.08.06-.12.09a1.83,1.83,0,0,1-.47.14.29.29,0,0,1-.26-.09c-.33-.3-.67-.58-1-.9s-.43-.39-.65-.58a4.26,4.26,0,0,1-.38-.35c-.57-.55-1.17-1.06-1.75-1.59s-.87-.83-1.33-1.21c-.26-.21-.49-.45-.74-.68a.2.2,0,0,1-.07-.16v-.26a.51.51,0,0,0-.24-.48.67.67,0,0,1-.33-.65c0-.13,0-.26,0-.39s-.08-.13-.14-.08l-.68.59a.19.19,0,0,0-.06.17,1.47,1.47,0,0,1-.28.86,4,4,0,0,0-.21.41c-.12.34-.38.61-.47,1,0,.07-.08.12-.13.19s-.07.17.05.24a.23.23,0,0,1,.11.22c0,.14,0,.28,0,.41a.33.33,0,0,0,.2.35c.23.12.44.27.66.41s.12.12.09.26c-.1.42-.17.84-.27,1.26a.25.25,0,0,1-.17.2,3.25,3.25,0,0,1-.42.11,5.51,5.51,0,0,1-.82.23c-.11,0-.24-.05-.22-.14s0-.12-.1-.1c-.28.09-.26.09-.3.4a1.61,1.61,0,0,1-.41,1.06,3.53,3.53,0,0,0-.48.65c0,.09-.09.18-.21.17s-.12-.13-.16-.21a3,3,0,0,0-.31-.59,1.62,1.62,0,0,1-.19-.42c0-.1-.08-.12-.19-.07s-.18,0-.21-.1A.3.3,0,0,0,257.36,80.36Z"/></g><g id="Calque_14" data-name="Calque 14"><path class="cls-3" d="M379,374.89a48.13,48.13,0,0,1-1.21,10.75,25.39,25.39,0,0,1-2.82,7.16A194.83,194.83,0,0,1,363.75,410a200.37,200.37,0,0,1-162.41,82.36C90.91,492.32-1.24,407.71.53,294.05c.2-13.45,3.2-33.67,7.52-48.56,34.1,60,78.11,94.83,112.31,106.62,27.41,9.45,48,4.93,50.92-11.15,3.4-19,12.52-86.79,20.43-146.93,5.71-43.52,10.72-81.59,12.52-95.66.49.65.78,0,1.13,0,1,14,3.9,51.72,8.89,95.48,7.77,68.27,20.57,147.77,38.89,160.42,0,0,18.58,9.79,35.15-3.89h0a28.58,28.58,0,0,0,4.45-4.68A48.05,48.05,0,0,1,379,374.89Z"/><path class="cls-3" d="M203.53,103.78c.09-1,1.36-15.74,1.36-15.74l.86,15.83Z"/></g></g></svg>