<?xml version="1.0" encoding="UTF-8" standalone="no"?>
<svg
   width="350"
   height="181.681"
   viewBox="0 0 350 181.681"
   class="css-1j8o68f"
   version="1.1"
   id="svg2724"
   sodipodi:docname="shadow-of-caliban-orange.svg"
   inkscape:version="1.1.2 (0a00cf5, 2022-02-04)"
   xmlns:inkscape="http://www.inkscape.org/namespaces/inkscape"
   xmlns:sodipodi="http://sodipodi.sourceforge.net/DTD/sodipodi-0.dtd"
   xmlns:xlink="http://www.w3.org/1999/xlink"
   xmlns="http://www.w3.org/2000/svg"
   xmlns:svg="http://www.w3.org/2000/svg">
  <sodipodi:namedview
     id="namedview2726"
     pagecolor="#505050"
     bordercolor="#eeeeee"
     borderopacity="1"
     inkscape:pageshadow="0"
     inkscape:pageopacity="0"
     inkscape:pagecheckerboard="0"
     showgrid="false"
     inkscape:zoom="3.6342857"
     inkscape:cx="174.86242"
     inkscape:cy="83.785377"
     inkscape:window-width="1920"
     inkscape:window-height="996"
     inkscape:window-x="0"
     inkscape:window-y="0"
     inkscape:window-maximized="1"
     inkscape:current-layer="svg2724" />
  <defs
     id="SvgjsDefs4388">
    <linearGradient
       id="SvgjsLinearGradient4395">
      <stop
         id="SvgjsStop4396"
         stop-color="#ef4136"
         offset="0" />
      <stop
         id="SvgjsStop4397"
         stop-color="#fbb040"
         offset="1" />
    </linearGradient>
    <linearGradient
       id="SvgjsLinearGradient4398">
      <stop
         id="SvgjsStop4399"
         stop-color="#ef4136"
         offset="0" />
      <stop
         id="SvgjsStop4400"
         stop-color="#fbb040"
         offset="1" />
    </linearGradient>
    <linearGradient
       id="SvgjsLinearGradient4401">
      <stop
         id="SvgjsStop4402"
         stop-color="#ef4136"
         offset="0" />
      <stop
         id="SvgjsStop4403"
         stop-color="#fbb040"
         offset="1" />
    </linearGradient>
    <linearGradient
       inkscape:collect="always"
       xlink:href="#SvgjsLinearGradient4395"
       id="linearGradient2785"
       x1="6.5"
       y1="15.599998"
       x2="83.300003"
       y2="15.599998"
       gradientUnits="userSpaceOnUse" />
    <linearGradient
       inkscape:collect="always"
       xlink:href="#SvgjsLinearGradient4395"
       id="linearGradient2787"
       x1="6.5"
       y1="15.599998"
       x2="83.300003"
       y2="15.599998"
       gradientUnits="userSpaceOnUse" />
    <linearGradient
       inkscape:collect="always"
       xlink:href="#SvgjsLinearGradient4395"
       id="linearGradient2789"
       gradientTransform="scale(1.0035751,0.99643767)"
       x1="48.626158"
       y1="11.440756"
       x2="86.862368"
       y2="11.440756"
       gradientUnits="userSpaceOnUse" />
    <linearGradient
       inkscape:collect="always"
       xlink:href="#SvgjsLinearGradient4395"
       id="linearGradient2791"
       x1="51.9"
       y1="15.600001"
       x2="53.1"
       y2="15.600001"
       gradientUnits="userSpaceOnUse" />
    <linearGradient
       inkscape:collect="always"
       xlink:href="#SvgjsLinearGradient4395"
       id="linearGradient2793"
       x1="82.800002"
       y1="29.199999"
       x2="84.000002"
       y2="29.199999"
       gradientUnits="userSpaceOnUse" />
    <linearGradient
       inkscape:collect="always"
       xlink:href="#SvgjsLinearGradient4395"
       id="linearGradient2795"
       x1="56.299999"
       y1="14.7"
       x2="57.299999"
       y2="14.7"
       gradientUnits="userSpaceOnUse" />
    <linearGradient
       inkscape:collect="always"
       xlink:href="#SvgjsLinearGradient4395"
       id="linearGradient2797"
       x1="29.200001"
       y1="34.400002"
       x2="30.200001"
       y2="34.400002"
       gradientUnits="userSpaceOnUse" />
    <linearGradient
       inkscape:collect="always"
       xlink:href="#SvgjsLinearGradient4395"
       id="linearGradient2799"
       x1="20.1"
       y1="69"
       x2="21.1"
       y2="69"
       gradientUnits="userSpaceOnUse" />
    <linearGradient
       inkscape:collect="always"
       xlink:href="#SvgjsLinearGradient4395"
       id="linearGradient2801"
       x1="37.999998"
       y1="39.199999"
       x2="40.199998"
       y2="39.199999"
       gradientUnits="userSpaceOnUse" />
    <linearGradient
       inkscape:collect="always"
       xlink:href="#SvgjsLinearGradient4395"
       id="linearGradient2803"
       x1="20.600001"
       y1="56.499998"
       x2="22.800001"
       y2="56.499998"
       gradientUnits="userSpaceOnUse" />
    <linearGradient
       inkscape:collect="always"
       xlink:href="#SvgjsLinearGradient4395"
       id="linearGradient2805"
       x1="45.4"
       y1="61.100001"
       x2="46.6"
       y2="61.100001"
       gradientUnits="userSpaceOnUse" />
    <linearGradient
       inkscape:collect="always"
       xlink:href="#SvgjsLinearGradient4395"
       id="linearGradient2807"
       x1="57.399999"
       y1="59.500002"
       x2="58.199999"
       y2="59.500002"
       gradientUnits="userSpaceOnUse" />
    <linearGradient
       inkscape:collect="always"
       xlink:href="#SvgjsLinearGradient4395"
       id="linearGradient2809"
       x1="65.799997"
       y1="57.1"
       x2="67.599997"
       y2="57.1"
       gradientUnits="userSpaceOnUse" />
    <linearGradient
       inkscape:collect="always"
       xlink:href="#SvgjsLinearGradient4395"
       id="linearGradient2811"
       x1="92.4"
       y1="43.4"
       x2="93.6"
       y2="43.4"
       gradientUnits="userSpaceOnUse" />
    <linearGradient
       inkscape:collect="always"
       xlink:href="#SvgjsLinearGradient4395"
       id="linearGradient2813"
       x1="80.799998"
       y1="45.299998"
       x2="82.399998"
       y2="45.299998"
       gradientUnits="userSpaceOnUse" />
    <linearGradient
       inkscape:collect="always"
       xlink:href="#SvgjsLinearGradient4395"
       id="linearGradient2815"
       x1="18.1"
       y1="42.400001"
       x2="19.7"
       y2="42.400001"
       gradientUnits="userSpaceOnUse" />
    <linearGradient
       inkscape:collect="always"
       xlink:href="#SvgjsLinearGradient4395"
       id="linearGradient2817"
       x1="58.1"
       y1="79.000002"
       x2="58.9"
       y2="79.000002"
       gradientUnits="userSpaceOnUse" />
    <linearGradient
       inkscape:collect="always"
       xlink:href="#SvgjsLinearGradient4395"
       id="linearGradient2819"
       x1="95.1"
       y1="41.6"
       x2="95.9"
       y2="41.6"
       gradientUnits="userSpaceOnUse" />
    <linearGradient
       inkscape:collect="always"
       xlink:href="#SvgjsLinearGradient4395"
       id="linearGradient2821"
       x1="95.299997"
       y1="45.300001"
       x2="96.099997"
       y2="45.300001"
       gradientUnits="userSpaceOnUse" />
    <linearGradient
       inkscape:collect="always"
       xlink:href="#SvgjsLinearGradient4395"
       id="linearGradient2823"
       x1="66.900002"
       y1="7.6999998"
       x2="67.900002"
       y2="7.6999998"
       gradientUnits="userSpaceOnUse" />
    <linearGradient
       inkscape:collect="always"
       xlink:href="#SvgjsLinearGradient4395"
       id="linearGradient2825"
       x1="23.4"
       y1="59.7"
       x2="33.6"
       y2="59.7"
       gradientUnits="userSpaceOnUse" />
    <linearGradient
       inkscape:collect="always"
       xlink:href="#SvgjsLinearGradient4395"
       id="linearGradient2827"
       x1="46"
       y1="71.8"
       x2="52.1"
       y2="71.8"
       gradientUnits="userSpaceOnUse" />
    <linearGradient
       inkscape:collect="always"
       xlink:href="#SvgjsLinearGradient4395"
       id="linearGradient2829"
       x1="77.9"
       y1="59.6"
       x2="83.2"
       y2="59.6"
       gradientUnits="userSpaceOnUse" />
    <linearGradient
       inkscape:collect="always"
       xlink:href="#SvgjsLinearGradient4395"
       id="linearGradient2831"
       x1="31.3"
       y1="14.6"
       x2="47.1"
       y2="14.6"
       gradientUnits="userSpaceOnUse" />
    <linearGradient
       inkscape:collect="always"
       xlink:href="#SvgjsLinearGradient4395"
       id="linearGradient2833"
       gradientTransform="scale(1.0285189,0.97227185)"
       x1="6.319767"
       y1="7.9195955"
       x2="93.435322"
       y2="7.9195955"
       gradientUnits="userSpaceOnUse" />
    <linearGradient
       inkscape:collect="always"
       xlink:href="#SvgjsLinearGradient4398"
       id="linearGradient2835"
       gradientTransform="scale(3.571867,0.27996563)"
       x1="0.46713946"
       y1="27.542666"
       x2="47.097863"
       y2="27.542666"
       gradientUnits="userSpaceOnUse" />
    <linearGradient
       inkscape:collect="always"
       xlink:href="#SvgjsLinearGradient4398"
       id="linearGradient2837"
       gradientTransform="scale(3.571867,0.27996563)"
       x1="0.46713946"
       y1="27.542666"
       x2="47.097863"
       y2="27.542666"
       gradientUnits="userSpaceOnUse" />
    <linearGradient
       inkscape:collect="always"
       xlink:href="#SvgjsLinearGradient4401"
       id="linearGradient2839"
       gradientTransform="scale(3.0919098,0.3234247)"
       x1="0.54000281"
       y1="23.841717"
       x2="38.612575"
       y2="23.841717"
       gradientUnits="userSpaceOnUse" />
    <linearGradient
       inkscape:collect="always"
       xlink:href="#SvgjsLinearGradient4401"
       id="linearGradient2841"
       gradientTransform="scale(3.0919098,0.3234247)"
       x1="0.54000281"
       y1="23.841717"
       x2="38.612575"
       y2="23.841717"
       gradientUnits="userSpaceOnUse" />
  </defs>
  <g
     id="SvgjsG4389"
     featurekey="DMynUx-0"
     transform="matrix(0.89536625,0,0,0.89536625,131.13179,-6.8943199)"
     fill="url(#SvgjsLinearGradient4395)"
     style="fill:url(#linearGradient2833)">
    <g
       id="g2671"
       style="fill:url(#linearGradient2787)">
      <defs
         id="defs2664">
        <circle
           id="b"
           cx="44.900002"
           cy="54"
           r="38.400002" />
      </defs>
      <clipPath
         id="a">
        <use
           xlink:href="#b"
           overflow="visible"
           id="use2666"
           x="0"
           y="0"
           width="100%"
           height="100%" />
      </clipPath>
      <path
         clip-path="url(#a)"
         fill="url(#SvgjsLinearGradient4395)"
         d="m 78.4,92.5 c 0.9,-0.4 1.7,-0.9 2.4,-1.6 0.6,-0.6 1,-1.2 1.4,-1.9 2.4,0.6 5.1,-0.1 7,-2 1,-1 1.6,-2.1 1.9,-3.3 0.9,-0.4 1.7,-0.9 2.4,-1.6 0.9,-0.9 1.4,-1.9 1.8,-2.9 2.1,0.1 4.2,-0.6 5.7,-2.1 1.8,-1.8 2.4,-4.2 2.1,-6.5 0.2,-0.2 0.5,-0.4 0.7,-0.6 1.4,-1.4 2.1,-3.2 2.2,-5 1.6,-2.8 1.1,-6.4 -1.2,-8.8 -2.9,-2.9 -7.6,-2.9 -10.5,0 -1.4,1.4 -2.1,3.2 -2.2,5 -0.8,1.5 -1.1,3.2 -0.8,4.8 -0.2,0.2 -0.5,0.4 -0.7,0.6 -0.9,0.9 -1.4,1.9 -1.8,2.9 -2.1,-0.1 -4.2,0.6 -5.7,2.1 -1,1 -1.6,2.1 -1.9,3.3 -0.9,0.4 -1.7,0.9 -2.4,1.6 -0.4,0.4 -0.7,0.8 -1,1.2 -1.7,-0.6 -3.6,-0.6 -5.3,0.1 -0.4,-0.9 -1,-1.8 -1.7,-2.6 -3,-3 -8,-3.1 -11.1,-0.1 -0.2,-1.7 -1,-3.4 -2.3,-4.7 -1.1,-1.1 -2.5,-1.8 -4,-2.1 0.1,-1.8 -0.4,-3.6 -1.5,-5.1 0.2,-1.8 -0.2,-3.7 -1.2,-5.3 0.3,-0.1 0.5,-0.2 0.7,-0.4 0.4,-0.4 0.5,-0.9 0.4,-1.4 0.4,0 0.7,-0.2 1,-0.4 0.4,-0.4 0.5,-1 0.4,-1.6 0.4,0 0.9,-0.1 1.2,-0.4 0.3,-0.3 0.5,-0.8 0.4,-1.2 0.2,-0.1 0.5,-0.2 0.6,-0.4 0.3,-0.3 0.4,-0.7 0.4,-1 0.1,0 0.2,-0.1 0.3,-0.2 0.1,-0.1 0.2,-0.3 0.3,-0.5 0.3,0 0.6,-0.1 0.8,-0.3 0.2,-0.2 0.3,-0.6 0.3,-0.9 0,0 0,0 0.1,0 0.4,-0.4 0.4,-1 0,-1.4 -0.4,-0.4 -1,-0.4 -1.4,0 -0.2,0.2 -0.3,0.4 -0.3,0.6 -0.3,0 -0.6,0.1 -0.8,0.3 -0.2,0.2 -0.3,0.5 -0.3,0.8 0,0 0,0.1 -0.1,0.1 -0.5,-0.1 -1,0.1 -1.4,0.4 -0.3,0.3 -0.5,0.8 -0.4,1.2 0,0 -0.1,0 -0.1,0.1 -0.4,-0.1 -0.9,0.1 -1.3,0.4 -0.3,0.3 -0.5,0.7 -0.4,1.2 -0.5,-0.2 -1.2,-0.1 -1.6,0.4 -0.2,0.2 -0.4,0.5 -0.4,0.8 -0.6,-0.2 -1.2,-0.1 -1.7,0.3 -0.2,0.2 -0.3,0.4 -0.4,0.6 -0.7,-0.3 -1.4,-0.4 -2.1,-0.5 -0.1,-0.3 -0.2,-0.5 -0.4,-0.7 0,0 -0.1,-0.1 -0.2,-0.1 0.1,-0.1 0.3,-0.2 0.4,-0.3 0.6,-0.6 0.6,-1.6 0,-2.2 0,0 -0.1,-0.1 -0.1,-0.1 0,0 0.1,-0.1 0.1,-0.1 0.4,-0.4 0.5,-0.9 0.4,-1.4 0.4,0 0.8,-0.1 1.1,-0.4 0.3,-0.3 0.5,-0.8 0.4,-1.2 0.3,-0.1 0.5,-0.2 0.7,-0.4 0.4,-0.4 0.5,-1 0.4,-1.6 0.4,0 0.7,-0.2 1,-0.4 0.4,-0.4 0.5,-1.1 0.4,-1.6 0.1,0 0.1,0 0.2,-0.1 0.4,0.2 0.8,0.1 1.1,-0.2 0.2,-0.2 0.3,-0.6 0.3,-0.9 0,0 0,0 0.1,0 0.4,-0.4 0.4,-1 0,-1.4 -0.4,-0.4 -1,-0.4 -1.4,0 -0.2,0.2 -0.3,0.4 -0.3,0.6 -0.3,0 -0.6,0.1 -0.8,0.3 -0.2,0.2 -0.3,0.5 -0.3,0.7 -0.5,-0.1 -0.9,0.1 -1.3,0.4 -0.3,0.3 -0.4,0.6 -0.4,0.9 -0.5,-0.2 -1.1,-0.1 -1.6,0.4 -0.4,0.4 -0.5,0.8 -0.4,1.3 -0.5,-0.1 -0.9,0.1 -1.3,0.4 -0.1,0.1 -0.2,0.3 -0.3,0.4 -0.5,-0.2 -1.2,-0.1 -1.6,0.3 -0.1,0.1 -0.3,0.3 -0.3,0.5 -0.1,-0.1 -0.1,-0.2 -0.2,-0.3 -0.6,-0.6 -1.6,-0.6 -2.2,0 -0.1,0.1 -0.1,0.1 -0.1,0.2 -0.9,-0.2 -1.9,-0.2 -2.8,0 0,-0.4 -0.2,-0.8 -0.5,-1.1 C 34.8,46.2 34.5,46 34.1,46 33.8,45.5 33.4,45.1 33,44.7 c -1.1,-1.1 -2.5,-1.8 -3.9,-2.1 0,-0.1 0,-0.2 -0.1,-0.3 0.7,-2.6 0,-5.5 -2.1,-7.6 -1.8,-1.8 -4.2,-2.5 -6.5,-2.3 1,-1.9 1.2,-4.2 0.5,-6.2 1.4,-1.6 2,-3.7 1.9,-5.8 1.6,-0.2 3.1,-0.9 4.4,-2.1 0.8,-0.8 1.3,-1.7 1.7,-2.6 2.4,0.6 5,-0.1 6.9,-2 2.1,-2.1 2.7,-5.2 1.7,-7.8 1.9,0 3.8,-0.7 5.2,-2.2 2.9,-2.9 2.9,-7.6 0,-10.5 -2.9,-2.9 -7.6,-2.9 -10.5,0 -0.9,0.9 -1.6,2 -1.9,3.2 -2.4,-0.5 -4.9,0.2 -6.7,2 -2,2 -2.6,4.7 -1.9,7.2 -1.8,0 -3.6,0.8 -5,2.2 -1.5,1.5 -2.2,3.4 -2.2,5.3 -1.9,0.1 -3.8,0.9 -5.2,2.3 -2.2,2.2 -2.8,5.4 -1.9,8.2 -2.3,2.6 -2.5,6.4 -0.8,9.3 -0.5,0.2 -0.9,0.5 -1.3,0.9 -1.1,1.1 -1.6,2.5 -1.6,4.2 -3.5,0.1 -6.5,1.1 -8.5,3.1 -7.9,7.9 -0.5,28 16.5,44.9 17,17 37.1,24.3 44.9,16.5 0.7,-0.7 1.2,-1.4 1.7,-2.3 2.9,0.9 5.5,0.6 7.2,-1 4.4,3 9.3,3.6 11.8,1.1 1.7,-2 2,-4.8 1.1,-7.8 z"
         id="path2669"
         style="fill:url(#linearGradient2785)" />
    </g>
    <path
       fill="url(#SvgjsLinearGradient4395)"
       d="M 86.8,12.1 V 12 l -0.2,-0.2 h -0.1 c -0.1,0 -1.7,-0.4 -3.9,-0.4 -2.6,0 -6.2,0.5 -8.5,2.8 l -8.7,8.7 c -0.7,0.3 -2,0.6 -4.8,0.6 -5.2,0 -7,1.9 -9.4,4.3 l -0.5,0.5 c -0.2,0.2 -1,1 3.1,6.2 L 49.2,39 c -0.2,0.2 -0.4,0.6 -0.4,0.9 0,0.3 0.1,0.7 0.4,0.9 l 1.9,1.9 c 0.5,0.5 1.3,0.5 1.8,0 l 4.2,-4.2 c 0.5,0.6 0.9,1 1.3,1.4 0.4,0.4 0.9,0.8 1.4,1.3 l -4.2,4.2 c -0.5,0.5 -0.5,1.3 0,1.8 l 1.9,1.9 c 0.2,0.2 0.6,0.4 0.9,0.4 0.3,0 0.7,-0.1 0.9,-0.4 l 4.6,-4.6 c 1.2,0.9 4.4,3.3 5.6,3.3 0.3,0 0.5,-0.1 0.6,-0.2 l 0.5,-0.5 c 2.4,-2.3 4.2,-4.2 4.3,-9.4 0,-2.7 0.3,-4 0.5,-4.6 l 8.8,-8.8 c 4.3,-3.9 2.7,-11.8 2.6,-12.2 z m -15.5,14.1 -2.2,-0.7 8.9,-5.3 -3.8,4.7 -0.5,0.6 0.8,0.2 2.2,0.5 -9.3,5.3 4.1,-4.5 0.5,-0.6 z m -13.7,11.3 -0.4,-0.4 -5,5 c -0.1,0.1 -0.3,0.1 -0.4,0 l -1.9,-1.9 c -0.1,-0.1 -0.1,-0.3 0,-0.4 l 5.2,-5.2 -0.2,-0.3 -0.1,-0.1 c -1.6,-2 -3.3,-4.6 -3.3,-5.2 l 0.4,-0.4 c 2.3,-2.3 3.9,-3.9 8.7,-4 2.4,0 4.2,-0.3 5.2,-0.8 L 74.7,15 c 2.1,-2.1 5.4,-2.5 7.8,-2.5 1.5,0 2.7,0.2 3.3,0.3 l -5.8,5.7 -12.1,7.2 3.2,1 -6.2,6.9 0.2,-0.3 -6,6 c -0.4,-0.5 -0.9,-1.1 -1.5,-1.8 z"
       id="path2673"
       style="fill:url(#linearGradient2789)" />
    <circle
       fill="url(#SvgjsLinearGradient4395)"
       cx="52.5"
       cy="16.200001"
       r="0.60000002"
       id="circle2675"
       style="fill:url(#linearGradient2791)" />
    <circle
       fill="url(#SvgjsLinearGradient4395)"
       cx="83.400002"
       cy="29.799999"
       r="0.60000002"
       id="circle2677"
       style="fill:url(#linearGradient2793)" />
    <circle
       fill="url(#SvgjsLinearGradient4395)"
       cx="56.799999"
       cy="15.2"
       r="0.5"
       id="circle2679"
       style="fill:url(#linearGradient2795)" />
    <circle
       fill="url(#SvgjsLinearGradient4395)"
       cx="29.700001"
       cy="34.900002"
       r="0.5"
       id="circle2681"
       style="fill:url(#linearGradient2797)" />
    <circle
       fill="url(#SvgjsLinearGradient4395)"
       cx="20.6"
       cy="69.5"
       r="0.5"
       id="circle2683"
       style="fill:url(#linearGradient2799)" />
    <circle
       fill="url(#SvgjsLinearGradient4395)"
       cx="39.099998"
       cy="40.299999"
       r="1.1"
       id="circle2685"
       style="fill:url(#linearGradient2801)" />
    <circle
       fill="url(#SvgjsLinearGradient4395)"
       cx="21.700001"
       cy="57.599998"
       r="1.1"
       id="circle2687"
       style="fill:url(#linearGradient2803)" />
    <circle
       fill="url(#SvgjsLinearGradient4395)"
       cx="46"
       cy="61.700001"
       r="0.60000002"
       id="circle2689"
       style="fill:url(#linearGradient2805)" />
    <circle
       fill="url(#SvgjsLinearGradient4395)"
       cx="57.799999"
       cy="59.900002"
       r="0.40000001"
       id="circle2691"
       style="fill:url(#linearGradient2807)" />
    <circle
       fill="url(#SvgjsLinearGradient4395)"
       cx="66.699997"
       cy="58"
       r="0.89999998"
       id="circle2693"
       style="fill:url(#linearGradient2809)" />
    <circle
       fill="url(#SvgjsLinearGradient4395)"
       cx="93"
       cy="44"
       r="0.60000002"
       id="circle2695"
       style="fill:url(#linearGradient2811)" />
    <circle
       fill="url(#SvgjsLinearGradient4395)"
       cx="81.599998"
       cy="46.099998"
       r="0.80000001"
       id="circle2697"
       style="fill:url(#linearGradient2813)" />
    <circle
       fill="url(#SvgjsLinearGradient4395)"
       cx="18.9"
       cy="43.200001"
       r="0.80000001"
       id="circle2699"
       style="fill:url(#linearGradient2815)" />
    <circle
       fill="url(#SvgjsLinearGradient4395)"
       cx="58.5"
       cy="79.400002"
       r="0.40000001"
       id="circle2701"
       style="fill:url(#linearGradient2817)" />
    <circle
       fill="url(#SvgjsLinearGradient4395)"
       cx="95.5"
       cy="42"
       r="0.40000001"
       id="circle2703"
       style="fill:url(#linearGradient2819)" />
    <circle
       fill="url(#SvgjsLinearGradient4395)"
       cx="95.699997"
       cy="45.700001"
       r="0.40000001"
       id="circle2705"
       style="fill:url(#linearGradient2821)" />
    <circle
       fill="url(#SvgjsLinearGradient4395)"
       cx="67.400002"
       cy="8.1999998"
       r="0.5"
       id="circle2707"
       style="fill:url(#linearGradient2823)" />
    <polygon
       fill="url(#SvgjsLinearGradient4395)"
       points="28.9,65.2 28.5,69.9 28.1,65.2 23.4,64.8 28.1,64.4 28.5,59.7 28.9,64.4 33.6,64.8 "
       id="polygon2709"
       style="fill:url(#linearGradient2825)" />
    <polygon
       fill="url(#SvgjsLinearGradient4395)"
       points="49.3,75.1 49.1,77.9 48.8,75.1 46,74.8 48.8,74.6 49.1,71.8 49.3,74.6 52.1,74.8 "
       id="polygon2711"
       style="fill:url(#linearGradient2827)" />
    <polygon
       fill="url(#SvgjsLinearGradient4395)"
       points="80.7,62.5 80.5,64.9 80.3,62.5 77.9,62.2 80.3,62 80.5,59.6 80.7,62 83.2,62.2 "
       id="polygon2713"
       style="fill:url(#linearGradient2829)" />
    <polygon
       fill="url(#SvgjsLinearGradient4395)"
       points="39.9,23.1 39.2,30.4 38.6,23.1 31.3,22.5 38.6,21.9 39.2,14.6 39.9,21.9 47.1,22.5 "
       id="polygon2715"
       style="fill:url(#linearGradient2831)" />
  </g>
  <g
     id="SvgjsG4390"
     featurekey="xgcenu-0"
     transform="matrix(2.1013606,0,0,2.1013606,-3.5062432,91.866179)"
     fill="url(#SvgjsLinearGradient4398)"
     style="fill:url(#linearGradient2837)">
    <path
       d="m 4.458,11.0046 c -0.21816,0.12059 -0.44118,0.32306 -0.44118,0.90966 0,0.45724 0.14779,0.70718 0.52734,0.89108 0.38386,0.18598 0.81196,0.19957 0.83354,0.2001 l 8.5334,0.03336 c 1.4828,0 3.6956,0.9158 3.6956,3.4388 0,2.523 -2.0564,3.4388 -3.4388,3.4388 H 1.6689 v -2.3477 h 12.488 c 0.1024,-0.0035 0.40818,-0.04211 0.66022,-0.18152 0.21828,-0.12072 0.44128,-0.32318 0.44128,-0.90964 0,-0.45724 -0.14779,-0.70718 -0.52734,-0.89108 -0.3827,-0.18547 -0.81038,-0.19947 -0.8343,-0.20012 l -8.5278,-0.03793 v 0.0046 c -1.4875,0 -3.7004,-0.9158 -3.7004,-3.4388 0,-2.5229997 2.0564,-3.4387997 3.4388,-3.4387997 h 12.499 V 10.82308 h -12.488 c -0.10229,0.0035 -0.40834,0.04211 -0.6605,0.18152 z M 34.539,8.617 h 2.3476 V 20.024 H 34.539 V 15.4941 H 23.297 V 20.024 H 20.9493 V 8.617 h 2.3477 v 4.5299 h 11.242 z m 13.8564,-0.906 9.1766,12.19 h -2.9508 l -2.566,-3.3974 h -7.3197 l -2.5286,3.3974 h -2.9177 z m -1.8992,6.4446 h 3.7983 L 48.3953,11.6234 Z M 74.473,10.8272 c 0.95568,0.96942 1.4718,2.2114 1.4534,3.497 -0.02289,1.5915 -0.78998,3.0436 -2.16,4.0892 -1.4271,1.089 -3.4354,1.6646 -5.8082,1.6646 -4.5288,0 -6.808,-0.0667 -6.8304,-0.06734 l -1.1387,-0.03414 v -11.373 h 7.9691 c 3.5728,0 5.5148,1.2092 6.5148,2.2236 z m -6.5146,6.9032 c 3.8486,0 5.5962,-1.7276 5.6208,-3.4396 0.0094,-0.66168 -0.25962,-1.2893 -0.77796,-1.8153 -0.9689,-0.9829 -2.6888,-1.5241 -4.843,-1.5241 h -5.6214 v 6.737 c 1.09,0.01896 2.963,0.04199 5.6214,0.04199 z M 94.225,9.649 c 0.91776,0.9099 0.9102,2.226 0.89856,4.2182 -9.18e-4,0.14832 -0.0017,0.302 -0.0023,0.46118 -0.0045,1.1823 -0.0076,2.0366 -0.13172,2.757 -0.10568,0.6142 -0.34974,1.4995 -1.2436,2.0954 -1.1321,0.75466 -2.8232,0.77168 -6.5282,0.8087 -0.57862,0.0058 -1.1122,0.01008 -1.6046,0.01008 -2.9354,0 -4.411,-0.15537 -5.3538,-1.0922 -0.98198,-0.9757 -0.97648,-2.4126 -0.96838,-4.5876 0.009,-2.4268 0.01451,-3.8916 1.2447,-4.801 1.0614,-0.7845 2.6028,-0.80516 5.9798,-0.85054 l 0.67396,-0.00928 c 4.2088,-0.060156 5.9508,-0.085136 7.0354,0.99024 z m -1.434,4.2052 c 0.0065,-1.1448 0.01346,-2.3288 -0.20864,-2.5488 -0.27556,-0.27322 -1.5123,-0.33638 -3.1584,-0.33638 -0.67736,0 -1.4242,0.01072 -2.2018,0.02184 l -0.67606,0.0093 c -2.4194,0.03244 -4.1674,0.05598 -4.625,0.39406 -0.2888,0.21346 -0.2935,1.4744 -0.29898,2.9346 -0.0051,1.3559 -0.0099,2.6366 0.28016,2.9248 0.4554,0.45254 2.9138,0.42782 5.2914,0.40428 2.7302,-0.02721 4.7028,-0.04695 5.258,-0.4171 0.32686,-0.2179 0.33104,-1.3516 0.33692,-2.9208 5.27e-4,-0.16074 0.0014,-0.316 0.0024,-0.46588 z M 118.9,8.743 h 2.9056 l -9.017,12.023 -3.5212,-4.6944 -3.5206,4.6944 L 96.729,8.743 h 2.9058 l 6.1122,8.1492 2.0678,-2.7574 -4.044,-5.3918 h 2.9058 l 2.5912,3.4548 2.5908,-3.4548 h 2.9055 l -4.0436,5.3918 2.0682,2.7574 z m 29.145,0.906 c 0.91776,0.9099 0.9102,2.226 0.89856,4.2182 -9.2e-4,0.14832 -0.002,0.302 -0.002,0.46118 -0.004,1.1823 -0.008,2.0366 -0.13172,2.757 -0.10568,0.6142 -0.34974,1.4995 -1.2436,2.0954 -1.1321,0.75466 -2.8232,0.77168 -6.5282,0.8087 -0.57862,0.0058 -1.1122,0.01008 -1.6046,0.01008 -2.9354,0 -4.411,-0.15537 -5.3538,-1.0922 -0.98198,-0.9757 -0.97648,-2.4126 -0.96838,-4.5876 0.009,-2.4268 0.0145,-3.8916 1.2447,-4.801 1.0614,-0.7845 2.6028,-0.80516 5.9798,-0.85054 l 0.67396,-0.00928 c 4.2088,-0.060156 5.9508,-0.085136 7.0354,0.99024 z m -1.434,4.2052 c 0.007,-1.1448 0.0135,-2.3288 -0.20864,-2.5488 -0.27556,-0.27322 -1.5123,-0.33638 -3.1584,-0.33638 -0.67736,0 -1.4242,0.01072 -2.2018,0.02184 l -0.67606,0.0093 c -2.4194,0.03244 -4.1674,0.05598 -4.625,0.39406 -0.2888,0.21346 -0.2935,1.4744 -0.29898,2.9346 -0.005,1.3559 -0.01,2.6366 0.28016,2.9248 0.4554,0.45254 2.9138,0.42782 5.2914,0.40428 2.7302,-0.02721 4.7028,-0.04695 5.258,-0.4171 0.32686,-0.2179 0.33104,-1.3516 0.33692,-2.9208 5.3e-4,-0.16074 0.001,-0.316 0.002,-0.46588 z m 21.616,-2.8894 h -13.59 v 2.1824 h 9.0599 v 2.3476 h -9.0599 v 4.5299 h -2.3477 V 8.6177 h 15.938 v 2.3476 z"
       id="path2718"
       style="fill:url(#linearGradient2835)" />
  </g>
  <g
     id="SvgjsG4391"
     featurekey="xgcenu-1"
     transform="matrix(2.9732332,0,0,2.9732332,-4.9642172,122.14317)"
     fill="url(#SvgjsLinearGradient4401)"
     style="fill:url(#linearGradient2841)">
    <path
       d="m 17.43,17.65 0.04014,2.3242 -1.1621,0.02002 c -0.01504,2.54e-4 -1.0275,0.01713 -3.0076,0.01713 -1.0032,0 -2.2546,-0.0045 -3.7506,-0.0174 -2.4132,-0.02105 -4.3428,-0.54212 -5.7348,-1.549 -1.3835,-1.0007 -2.1454,-2.4562 -2.1454,-4.0986 0,-1.6413 0.76854,-3.1002 2.164,-4.1074 1.383,-0.99846 3.3616,-1.531 5.7218,-1.5402 4.441,-0.017129 6.719,2.734e-4 6.7416,4.102e-4 l 1.1622,0.00916 -0.01832,2.3245998 -1.1622,-0.0092 c -0.02236,-2.54e-4 -2.2892,-0.01752 -6.7144,-3.9e-4 -3.4358,0.01334 -5.5702,1.2866 -5.5702,3.3232 0,0.90194 0.39812,1.6473 1.1831,2.215 0.97936,0.70836 2.4984,1.0916 4.3926,1.1081 4.4144,0.03857 6.6758,8.98e-4 6.698,5.07e-4 z m 11.5654,-9.939 9.1766,12.19 h -2.9508 l -2.566,-3.3974 h -7.3197 l -2.5286,3.3974 h -2.9177 z m -1.8992,6.4446 h 3.7983 L 28.9953,11.6234 Z M 42.937,17.619 h 13.59 v 2.3477 H 40.589 V 8.5597 h 2.3477 v 9.0597 z m 19.2768,2.40561 h -2.3246 v -11.295 h 2.3246 z M 81.467,12.0424 c 0,1.0081 -0.32878,1.759 -0.8114,2.2982 0.48524,0.53376 0.8113,1.2642 0.8113,2.2318 0,2.523 -2.0564,3.4388 -3.4388,3.4388 H 65.5291 V 8.6032 h 12.237 c 1.4875,0 3.7004,0.9158 3.7004,3.4388 z m -2.789,5.4394 c 0.21816,-0.12072 0.44116,-0.32318 0.44102,-0.90964 0,-0.47164 -0.15969,-0.72696 -0.56946,-0.91072 -0.3725,-0.16701 -0.77926,-0.18049 -0.78304,-0.18049 h -9.8895 v 2.1822 h 10.141 c 0.1024,-0.0034 0.40832,-0.04197 0.66036,-0.18139 z m 0,-4.5298 c 0.21816,-0.12072 0.44116,-0.32304 0.44116,-0.90964 0,-0.47164 -0.15969,-0.72696 -0.56946,-0.91072 -0.3725,-0.16701 -0.77926,-0.18049 -0.78304,-0.18049 h -9.8895 v 2.1822 h 10.14 c 0.1024,-0.0034 0.40832,-0.04197 0.66036,-0.18139 z m 13.1774,-5.241 9.1766,12.19 h -2.9508 l -2.566,-3.3974 h -7.3197 l -2.5286,3.3974 h -2.9177 z m -1.8992,6.4446 h 3.7983 L 91.8553,11.6234 Z M 117.039,8.593 h 2.3476 v 11.25 l -13.59,-7.098 v 7.2556 h -2.3477 v -11.25 l 13.59,7.098 V 8.593 Z"
       id="path2721"
       style="fill:url(#linearGradient2839)" />
  </g>
</svg>
