<?xml version="1.0" standalone="no"?>
<!DOCTYPE svg PUBLIC "-//W3C//DTD SVG 20010904//EN"
 "http://www.w3.org/TR/2001/REC-SVG-20010904/DTD/svg10.dtd">
<svg version="1.0" xmlns="http://www.w3.org/2000/svg"
 width="2054.000000pt" height="2054.000000pt" viewBox="0 0 2054.000000 2054.000000"
 preserveAspectRatio="xMidYMid meet">
<metadata>
Created by potrace 1.14, written by Peter Selinger 2001-2017
</metadata>
<g transform="translate(0.000000,2054.000000) scale(0.100000,-0.100000)"
fill="#000000" stroke="none">
<path d="M11058 20434 c-2 -54 1 -100 7 -106 7 -8 6 -8 -5 -3 -13 8 -13 7 -1
-8 8 -10 11 -20 7 -24 -3 -3 -6 -1 -6 5 0 6 -7 9 -15 6 -9 -4 -16 3 -21 20 -9
38 -29 49 -92 50 l-57 1 2 35 2 35 -11 -37 c-8 -30 -15 -38 -34 -38 -28 0 -42
-20 -80 -110 -15 -36 -42 -81 -60 -100 -30 -32 -40 -58 -58 -150 -2 -14 -9
-45 -15 -70 -17 -78 -28 -189 -46 -487 -3 -51 -7 -107 -10 -125 -3 -32 -13
-168 -20 -278 -4 -56 -14 -195 -18 -240 -2 -24 -33 -60 -68 -80 -10 -6 -38 3
-90 28 -41 20 -78 37 -84 37 -5 1 -16 3 -22 3 -7 1 -13 12 -13 25 0 18 -2 19
-10 7 -5 -8 -10 -20 -10 -26 0 -8 266 -141 297 -149 1 0 4 -12 8 -28 7 -25 5
-27 -24 -27 -17 0 -48 -9 -70 -21 -22 -11 -45 -18 -50 -14 -6 3 -27 -1 -47
-10 -20 -8 -37 -15 -38 -15 0 0 0 31 2 68 l2 68 -70 28 c-39 15 -81 26 -93 24
-19 -3 -22 -9 -22 -53 0 -33 -6 -56 -17 -67 -10 -10 -14 -25 -11 -37 3 -12 1
-21 -6 -21 -21 0 -26 -2 -38 -12 -10 -8 -13 -4 -13 17 0 34 -7 30 -14 -7 -7
-39 -25 -68 -41 -68 -46 0 30 -106 97 -137 21 -9 26 -18 22 -35 -5 -29 -5
-151 1 -378 4 -183 6 -197 18 -217 15 -23 29 -14 23 15 -4 15 -8 37 -11 50 -5
29 44 182 59 182 14 0 37 58 26 65 -7 4 34 118 59 165 4 8 16 48 26 88 12 52
21 70 28 63 6 -6 28 -11 49 -11 21 0 50 -7 63 -16 23 -15 47 -20 113 -23 18
-1 22 -7 22 -35 0 -19 -3 -37 -8 -40 -9 -5 -9 -832 0 -842 4 -4 14 -1 23 6 13
11 15 9 13 -16 -1 -16 1 -34 4 -39 3 -6 49 -11 102 -13 122 -4 136 6 131 99
-1 41 1 56 7 45 5 -9 15 -16 22 -16 8 0 16 -7 20 -15 8 -22 24 -18 31 6 5 15
9 18 15 9 6 -9 10 -8 19 6 8 15 10 7 9 -39 -1 -84 7 -90 134 -91 l103 0 3 37
c3 31 6 36 17 27 10 -8 15 -8 20 0 4 7 7 189 7 406 1 290 -3 406 -12 439 -16
56 -9 64 56 68 27 2 60 11 74 20 14 9 39 15 57 15 18 -1 39 4 47 11 12 10 17
6 27 -31 15 -55 50 -154 79 -223 7 -16 14 -48 16 -69 1 -26 9 -45 22 -55 43
-33 79 -210 50 -239 -9 -9 -9 -15 -1 -23 8 -8 15 -2 27 22 13 28 16 86 18 327
l3 293 23 6 c12 3 29 18 37 33 8 16 23 31 34 35 30 9 33 42 5 64 -18 15 -24
28 -24 61 0 26 -4 39 -10 35 -6 -4 -8 -15 -5 -26 7 -22 -1 -23 -35 -4 -17 9
-25 22 -25 42 0 17 -6 27 -13 25 -8 -1 -12 16 -12 58 0 59 -1 60 -27 60 -16
-1 -46 -9 -68 -20 -22 -11 -48 -19 -57 -20 -26 0 -32 -19 -30 -87 2 -62 -3
-74 -25 -52 -6 6 -32 13 -57 15 -26 1 -56 10 -68 19 -13 8 -37 15 -55 15 -31
0 -32 1 -22 28 8 22 25 36 77 59 37 17 104 48 149 68 46 21 81 41 78 45 -2 4
-7 22 -10 41 -9 49 -16 49 -12 1 3 -34 0 -43 -15 -48 -11 -3 -25 0 -33 6 -12
10 -15 9 -15 -3 0 -17 -96 -67 -129 -67 -11 0 -34 12 -51 28 -27 24 -30 35
-35 102 -3 41 -7 91 -10 110 -2 19 -7 82 -10 140 -3 58 -8 128 -10 155 -4 60
-14 177 -20 260 -3 33 -7 98 -10 145 -9 143 -22 229 -54 377 -14 63 -25 87
-45 105 -15 13 -29 37 -31 53 -11 77 -17 167 -19 242 0 46 -4 83 -8 83 -4 0
-8 -43 -10 -96z m12 -174 c0 -5 -4 -10 -10 -10 -5 0 -10 5 -10 10 0 6 5 10 10
10 6 0 10 -4 10 -10z m-547 -1540 c-6 -21 -12 -24 -38 -13 -15 5 -15 8 6 24
28 21 39 17 32 -11z m381 -1218 c3 -5 -1 -9 -9 -9 -8 0 -12 4 -9 9 3 4 7 8 9
8 2 0 6 -4 9 -8z"/>
<path d="M12940 18223 c-12 -3 -15 -22 -14 -99 1 -82 -1 -99 -17 -115 -11 -11
-19 -30 -19 -44 0 -14 -5 -25 -11 -25 -20 0 -109 -83 -109 -102 0 -12 -7 -18
-25 -18 -14 0 -29 -8 -35 -19 -5 -11 -16 -25 -23 -33 -34 -34 -97 -127 -97
-142 0 -9 11 -21 25 -26 31 -12 31 -15 -2 -49 -16 -15 -70 -94 -122 -176 l-94
-148 27 -24 c31 -27 49 -21 102 31 17 17 62 58 99 91 90 79 95 84 95 99 0 8 7
19 15 26 8 7 12 16 9 21 -3 5 1 6 9 3 20 -7 68 -119 60 -141 -3 -10 -14 -25
-24 -33 -16 -13 -17 -20 -8 -52 10 -38 21 -44 72 -40 10 1 17 -5 17 -17 0 -24
39 -73 51 -65 6 3 15 18 20 32 8 21 12 23 19 12 13 -20 20 -9 22 34 1 26 5 35
14 32 7 -3 16 -1 20 5 4 6 11 6 20 -2 11 -9 14 -9 14 1 0 27 12 0 17 -37 6
-45 11 -52 23 -34 6 10 12 5 25 -20 l18 -33 23 28 c13 15 24 36 24 46 0 14 7
18 30 18 55 -2 89 58 50 90 -28 23 -27 57 3 124 26 56 47 81 47 55 0 -41 63
-110 243 -267 41 -36 56 -35 84 6 12 19 6 32 -65 140 -44 66 -91 139 -106 162
-15 24 -31 40 -35 37 -5 -2 -14 2 -21 9 -9 12 -6 18 19 31 17 8 31 22 31 31 0
19 -127 184 -143 185 -7 1 -15 1 -20 0 -4 -1 -12 11 -17 25 -10 24 -50 68 -90
97 -9 7 -23 30 -31 52 -9 22 -20 39 -25 38 -5 -1 -9 43 -9 98 0 74 -3 100 -13
104 -22 8 -30 -2 -24 -32 5 -26 4 -27 -14 -13 -10 8 -23 21 -27 28 -13 20 -34
14 -63 -20 l-27 -33 5 33 c5 35 2 40 -22 35z"/>
<path d="M8579 18187 c0 -1 -1 -47 -2 -101 -1 -87 -4 -103 -23 -123 -13 -14
-20 -31 -17 -43 3 -13 0 -20 -8 -20 -20 0 -109 -85 -109 -104 0 -10 -9 -16
-23 -16 -18 0 -40 -22 -90 -88 -37 -49 -67 -95 -67 -104 0 -8 11 -20 25 -26
28 -13 32 -30 9 -39 -14 -5 -71 -88 -186 -270 -34 -54 -37 -64 -26 -82 19 -31
49 -30 88 3 106 89 212 193 226 222 9 19 21 34 28 34 6 0 24 -26 39 -59 29
-62 27 -101 -7 -114 -15 -6 -15 -24 -1 -68 6 -18 26 -24 68 -21 10 1 17 -5 17
-17 0 -19 36 -71 50 -71 4 0 11 12 14 26 5 19 11 24 26 19 17 -5 20 -1 21 22
1 15 1 33 0 39 -2 16 45 24 58 11 8 -8 11 -7 11 3 0 20 15 1 16 -21 1 -10 2
-29 3 -40 1 -17 4 -19 15 -10 11 9 17 6 27 -19 8 -16 17 -30 21 -30 11 0 48
57 48 73 0 11 9 15 30 15 36 -1 56 14 63 50 4 19 0 31 -14 42 -26 21 -26 56 0
115 36 77 42 82 59 43 8 -18 15 -36 14 -39 -1 -4 38 -42 86 -86 175 -160 169
-155 191 -143 45 24 44 44 -8 122 -26 40 -74 112 -105 159 -31 48 -65 89 -76
92 -29 7 -25 21 10 34 34 13 39 39 13 69 -10 10 -38 45 -62 77 -44 58 -73 82
-84 70 -4 -3 -11 7 -17 23 -6 16 -32 47 -57 69 -25 22 -54 59 -64 83 -10 23
-22 42 -27 42 -4 0 -8 44 -8 98 0 90 -1 97 -19 97 -16 0 -19 -6 -17 -30 l4
-30 -29 28 c-36 34 -56 34 -73 2 -17 -32 -34 -32 -28 -1 4 18 0 26 -14 29 -10
3 -18 4 -19 4z"/>
<path d="M10879 16868 c-4 -13 -7 -46 -13 -118 -4 -47 -9 -109 -11 -137 -3
-29 -7 -77 -10 -105 -2 -29 -7 -78 -9 -108 -3 -30 -8 -84 -11 -120 -3 -36 -8
-81 -10 -100 -2 -19 -7 -55 -10 -80 -3 -25 -7 -56 -10 -70 -2 -14 -7 -52 -10
-85 -3 -33 -8 -67 -10 -75 -2 -8 -6 -42 -10 -75 -6 -55 -10 -90 -20 -155 -5
-31 -22 -167 -30 -235 -4 -27 -8 -61 -10 -75 -2 -14 -7 -45 -10 -70 -3 -25 -8
-61 -10 -80 -5 -39 -12 -91 -20 -160 -3 -25 -10 -72 -15 -105 -5 -33 -12 -85
-15 -115 -3 -30 -8 -66 -10 -80 -2 -14 -6 -50 -10 -80 -3 -30 -8 -68 -12 -85
-3 -16 -7 -41 -8 -55 -5 -44 -17 -145 -20 -162 -2 -9 -7 -48 -10 -85 -4 -37
-9 -70 -10 -73 -2 -3 -6 -34 -10 -70 -3 -36 -8 -72 -10 -80 -2 -8 -7 -40 -10
-70 -3 -30 -8 -66 -10 -80 -4 -28 -13 -96 -21 -155 -8 -67 -15 -119 -19 -145
-2 -14 -7 -50 -10 -80 -3 -30 -8 -62 -10 -70 -2 -8 -7 -44 -10 -80 -4 -36 -9
-74 -11 -84 -2 -11 -6 -42 -9 -70 -3 -28 -8 -62 -10 -76 -2 -14 -6 -45 -10
-70 -3 -25 -8 -61 -10 -80 -3 -19 -7 -57 -10 -85 -3 -27 -7 -57 -10 -65 -2 -8
-6 -42 -10 -75 -6 -55 -9 -82 -20 -155 -2 -14 -7 -47 -10 -75 -3 -27 -8 -66
-11 -85 -3 -19 -7 -53 -9 -75 -3 -22 -9 -71 -15 -110 -5 -38 -12 -90 -15 -115
-4 -25 -8 -56 -10 -70 -2 -14 -7 -50 -10 -80 -3 -30 -8 -62 -10 -70 -2 -8 -7
-44 -10 -80 -3 -36 -8 -72 -10 -80 -2 -8 -7 -40 -10 -70 -3 -30 -8 -66 -10
-80 -2 -14 -7 -49 -10 -79 -4 -30 -8 -63 -11 -74 -2 -11 -6 -43 -9 -71 -3 -28
-8 -62 -10 -76 -5 -32 -13 -91 -20 -155 -4 -27 -8 -61 -10 -75 -6 -40 -14
-102 -19 -145 -3 -22 -7 -56 -10 -75 -7 -46 -24 -174 -31 -230 -4 -25 -8 -56
-10 -70 -4 -23 -15 -109 -31 -235 -3 -27 -8 -59 -10 -70 -2 -11 -6 -44 -10
-73 -3 -29 -7 -61 -9 -71 -2 -10 -6 -42 -10 -72 -3 -30 -13 -97 -20 -150 -8
-52 -17 -120 -20 -150 -3 -30 -7 -65 -10 -79 -3 -14 -8 -50 -11 -80 -3 -30 -7
-57 -9 -60 -2 -3 -6 -34 -10 -70 -3 -36 -8 -72 -10 -80 -2 -8 -7 -37 -10 -65
-5 -47 -11 -97 -20 -155 -2 -14 -7 -50 -10 -80 -4 -30 -9 -62 -10 -71 -2 -9
-6 -38 -9 -65 -4 -27 -9 -64 -11 -81 -11 -76 -15 -100 -20 -143 -3 -25 -8 -52
-10 -60 -2 -8 -6 -42 -10 -75 -3 -33 -10 -87 -15 -120 -5 -33 -12 -80 -15
-105 -3 -25 -8 -56 -10 -70 -2 -14 -7 -45 -10 -70 -3 -25 -8 -56 -10 -70 -2
-14 -7 -49 -10 -79 -4 -30 -8 -62 -10 -72 -2 -9 -6 -39 -10 -66 -4 -26 -8 -59
-10 -73 -2 -14 -7 -45 -10 -70 -3 -25 -8 -56 -10 -70 -2 -14 -9 -61 -15 -105
-6 -44 -13 -91 -15 -105 -3 -14 -14 -90 -25 -170 -11 -80 -23 -156 -25 -170
-2 -14 -7 -47 -11 -75 -3 -27 -7 -57 -9 -65 -1 -8 -6 -35 -10 -60 -3 -25 -9
-58 -12 -75 -2 -16 -6 -43 -8 -58 -11 -79 -17 -119 -30 -192 -8 -44 -16 -96
-19 -115 -29 -204 -58 -309 -108 -400 -161 -291 -501 -436 -998 -424 -169 3
-208 6 -295 19 -22 4 -53 9 -70 11 -26 4 -84 14 -165 30 -62 12 -267 68 -388
106 l-132 42 -54 85 c-153 244 -304 561 -403 846 -33 94 -89 275 -98 320 -3
11 -14 56 -24 100 -29 118 -57 259 -67 331 -2 23 -7 52 -9 64 -2 12 -7 48 -10
81 -4 33 -8 68 -10 78 -24 126 -24 691 0 884 2 18 7 57 10 87 3 30 8 66 10 80
3 14 7 41 9 60 31 247 131 624 243 910 44 113 194 426 251 525 16 28 38 66 50
86 213 376 622 834 1002 1124 36 28 67 53 70 56 15 17 341 225 435 277 372
206 790 358 1221 443 50 10 60 16 60 33 1 24 14 158 19 196 2 14 6 57 10 95 3
39 8 81 10 95 2 14 7 59 10 100 3 41 7 86 9 100 3 14 7 61 11 104 4 43 8 87
10 97 2 10 7 60 11 111 3 51 8 95 9 98 2 3 6 41 9 85 4 44 9 96 11 115 7 46
13 101 20 180 3 36 8 81 10 100 2 19 7 64 10 100 3 36 8 81 10 100 2 19 7 64
10 100 4 36 8 76 10 90 2 14 6 60 10 102 3 42 8 85 9 95 2 10 7 54 11 98 3 44
8 91 10 105 2 14 6 59 10 100 3 41 8 86 10 100 2 14 7 59 10 101 3 42 7 85 9
95 2 11 7 51 10 89 4 39 9 86 11 105 2 19 6 64 10 100 3 36 8 81 10 100 2 19
7 64 10 100 6 63 8 82 20 185 3 28 8 79 11 115 3 36 7 81 9 100 2 19 7 62 10
95 3 33 7 76 10 95 2 19 7 64 10 100 3 36 8 81 10 100 2 19 7 66 11 103 l6 68
-93 -6 c-52 -3 -121 -8 -154 -10 -199 -16 -275 -23 -325 -30 -19 -3 -57 -7
-85 -10 -27 -3 -61 -7 -75 -9 -14 -3 -47 -7 -75 -11 -27 -3 -61 -8 -75 -10
-14 -3 -43 -7 -65 -10 -22 -4 -47 -8 -55 -10 -8 -2 -35 -7 -60 -10 -25 -4 -90
-15 -145 -26 -55 -11 -113 -22 -130 -25 -16 -3 -48 -10 -70 -16 -22 -5 -50
-12 -62 -14 -55 -10 -241 -57 -378 -94 -82 -23 -163 -45 -180 -50 -129 -35
-599 -194 -680 -230 -11 -5 -92 -38 -180 -74 -88 -35 -191 -79 -230 -96 -38
-18 -95 -43 -125 -57 -579 -262 -1218 -653 -1735 -1062 -328 -260 -733 -638
-975 -910 -41 -46 -84 -94 -95 -105 -54 -56 -251 -299 -365 -451 -143 -191
-325 -457 -420 -615 -35 -58 -73 -121 -85 -140 -13 -19 -35 -57 -50 -85 -16
-27 -46 -81 -67 -120 -134 -243 -297 -591 -415 -884 -69 -173 -206 -567 -252
-726 -83 -286 -167 -609 -185 -705 -2 -14 -9 -45 -15 -70 -5 -25 -12 -58 -15
-75 -3 -16 -8 -41 -11 -55 -10 -47 -17 -85 -21 -105 -1 -11 -14 -85 -28 -165
-13 -80 -27 -165 -30 -190 -7 -47 -25 -177 -31 -220 -2 -14 -6 -52 -9 -85 -4
-33 -9 -82 -12 -108 -7 -58 -11 -116 -21 -262 -15 -211 -7 -909 12 -1049 2
-17 7 -67 10 -111 4 -44 8 -91 10 -105 1 -14 6 -56 10 -95 4 -38 8 -72 10 -75
1 -3 6 -36 10 -74 3 -38 11 -94 16 -125 9 -51 15 -87 24 -146 6 -45 27 -154
40 -215 8 -36 17 -81 20 -100 8 -47 43 -203 49 -221 3 -8 8 -25 10 -39 41
-211 236 -819 340 -1065 7 -16 41 -97 76 -180 109 -259 323 -682 441 -872 22
-34 39 -65 39 -67 0 -12 235 -375 318 -491 96 -134 271 -363 364 -476 94 -115
143 -171 293 -338 143 -159 482 -487 669 -646 32 -27 63 -55 70 -60 9 -9 91
-77 171 -143 99 -82 421 -315 577 -417 106 -70 205 -136 220 -146 15 -11 30
-19 33 -19 4 0 25 -13 48 -28 141 -95 620 -349 887 -469 201 -91 483 -205 675
-273 95 -33 360 -119 385 -125 8 -2 44 -13 80 -24 55 -17 135 -39 200 -56 8
-2 58 -15 110 -29 77 -20 215 -52 309 -71 9 -2 75 -15 146 -30 72 -14 142 -28
157 -30 15 -2 51 -8 80 -14 29 -6 73 -13 98 -16 25 -3 59 -8 75 -11 17 -3 46
-7 65 -9 19 -2 51 -6 70 -9 57 -8 132 -17 180 -22 25 -2 59 -6 75 -8 17 -3 71
-8 120 -11 50 -4 104 -9 120 -11 213 -26 1040 -25 1315 1 19 2 71 6 115 10 44
4 91 8 105 10 128 13 163 17 178 20 9 1 46 6 82 10 36 4 74 9 85 11 11 2 37 7
58 9 20 3 90 14 155 26 64 11 131 22 147 25 17 3 93 19 170 35 77 17 151 32
165 35 14 3 33 7 42 10 9 3 25 7 35 9 20 4 158 40 213 55 570 154 1102 358
1605 616 83 42 164 83 180 92 50 26 227 127 272 155 24 15 45 27 48 27 2 0 31
16 62 36 32 20 72 45 88 55 178 110 510 341 685 477 144 112 192 151 349 287
251 215 577 534 766 751 6 6 38 42 72 80 34 38 72 83 85 99 12 17 29 37 37 45
7 8 48 57 90 110 42 52 80 99 84 105 165 200 549 778 659 990 48 94 87 217
109 345 8 52 12 79 24 175 6 48 7 311 1 340 -2 11 -7 50 -10 87 -8 74 -12 102
-27 168 -6 25 -13 56 -15 70 -10 54 -47 166 -90 272 -257 641 -837 1112 -1519
1234 -242 44 -529 39 -770 -12 -38 -8 -80 -17 -93 -20 -56 -11 -236 -76 -328
-117 -150 -68 -328 -177 -449 -277 -67 -56 -256 -250 -315 -325 -35 -44 -89
-105 -119 -136 -54 -54 -210 -175 -241 -187 -8 -3 -35 -18 -60 -32 -69 -40
-218 -97 -300 -115 -246 -54 -524 -35 -775 52 -127 44 -156 62 -233 142 -141
145 -271 383 -422 766 -4 11 -12 32 -19 47 -13 35 -80 234 -119 358 -44 139
-105 353 -152 535 -39 151 -44 172 -54 220 -2 11 -11 47 -19 80 -15 55 -100
437 -111 495 -2 14 -23 115 -45 225 -22 110 -42 216 -46 235 -3 19 -14 80 -25
135 -10 55 -26 141 -34 190 -9 50 -18 101 -21 115 -6 29 -22 122 -29 165 -32
193 -78 476 -82 500 -2 17 -6 41 -9 55 -2 14 -7 43 -10 65 -3 22 -13 85 -21
140 -19 120 -19 125 -29 194 -3 30 -9 63 -11 75 -2 12 -7 41 -10 66 -3 25 -7
56 -9 70 -3 14 -7 41 -9 60 -3 19 -8 53 -11 75 -19 131 -26 184 -30 220 -3 22
-10 74 -15 115 -16 113 -18 131 -25 185 -3 28 -8 66 -10 85 -5 32 -8 57 -19
143 -4 29 -7 54 -21 162 -2 17 -7 53 -10 80 -3 28 -8 64 -10 80 -2 17 -7 57
-10 90 -3 33 -8 71 -10 85 -3 14 -7 45 -10 70 -3 25 -10 86 -16 135 -6 50 -12
104 -14 120 -2 17 -6 55 -9 85 -8 65 -15 128 -21 190 -3 25 -7 59 -9 75 -3 17
-8 62 -11 100 -4 39 -8 81 -10 95 -2 14 -7 52 -10 85 -3 33 -8 74 -10 90 -2
17 -9 80 -15 140 -6 61 -13 126 -15 145 -5 41 -12 120 -20 205 -3 33 -8 71
-10 85 -2 14 -6 59 -10 100 -4 41 -8 86 -10 100 -2 14 -6 61 -10 105 -4 44 -9
94 -11 110 -10 94 -13 128 -19 200 -4 44 -8 87 -10 95 -2 9 -6 58 -10 110 -4
52 -8 102 -10 110 -1 8 -6 53 -9 100 -4 47 -9 101 -11 120 -2 19 -7 69 -10
110 -3 41 -8 92 -11 112 -3 20 -7 65 -9 100 -4 67 -13 179 -20 238 -2 19 -7
78 -10 130 -3 52 -8 109 -10 125 -2 17 -7 73 -10 125 -3 52 -8 106 -10 120 -2
14 -7 70 -10 125 -4 55 -8 116 -10 135 -2 19 -7 87 -10 150 -4 63 -8 142 -11
175 -2 33 -6 114 -10 180 -3 66 -8 143 -9 170 -2 28 -4 65 -4 83 -1 25 -5 32
-21 32 -11 0 -20 -1 -21 -2z"/>
<path d="M11294 16452 c3 -9 8 -66 11 -127 4 -60 8 -126 10 -145 2 -19 6 -84
10 -145 4 -60 8 -126 10 -145 2 -19 6 -87 10 -150 4 -63 8 -131 10 -150 4 -42
13 -164 20 -280 3 -47 7 -110 10 -140 4 -52 8 -100 20 -285 3 -44 7 -107 10
-140 3 -33 7 -96 10 -140 9 -139 14 -218 19 -280 3 -33 8 -103 11 -155 3 -52
8 -122 10 -155 9 -119 17 -221 20 -285 2 -36 7 -99 10 -140 3 -41 8 -109 10
-150 3 -41 8 -102 10 -135 3 -33 7 -94 10 -135 2 -41 7 -111 10 -155 3 -44 8
-111 10 -150 3 -38 7 -99 10 -135 2 -36 7 -103 10 -150 10 -157 16 -225 20
-228 4 -5 69 -21 110 -28 41 -7 294 -72 325 -83 14 -6 59 -19 100 -31 41 -12
84 -26 95 -31 11 -5 63 -24 115 -43 435 -156 928 -450 1265 -755 83 -76 296
-291 370 -376 213 -242 448 -426 710 -555 106 -52 262 -116 305 -125 8 -2 40
-10 70 -19 80 -23 191 -45 295 -60 22 -3 60 -8 85 -12 70 -10 396 -12 480 -3
151 15 187 21 295 45 61 13 121 27 135 30 40 9 227 72 290 99 470 198 843 527
1064 940 74 138 160 378 181 508 37 226 39 401 6 572 -70 362 -205 556 -836
1203 -385 395 -529 536 -705 692 -40 36 -78 70 -84 75 -9 8 -71 60 -171 143
-375 311 -893 657 -1360 907 -195 105 -718 355 -741 355 -3 0 -24 8 -47 19
-251 113 -738 280 -1127 387 -256 70 -706 164 -950 199 -25 3 -56 8 -70 10
-14 2 -45 7 -70 10 -25 3 -61 7 -80 10 -118 15 -195 23 -295 30 -49 4 -55 2
-51 -13z"/>
</g>
</svg>
